<svg width="24" height="24" viewBox="0 0 24 24" fill="none" xmlns="http://www.w3.org/2000/svg">
<circle cx="12" cy="12" r="11.5" fill="#DAB5F0" stroke="#DAB5F0"/>
<path d="M10.1932 10C10.0838 9.66525 9.93963 9.36529 9.76065 9.10014C9.58499 8.83168 9.37453 8.60298 9.12926 8.41406C8.88731 8.22514 8.61222 8.08097 8.30398 7.98153C7.99574 7.8821 7.65767 7.83239 7.28977 7.83239C6.68655 7.83239 6.13802 7.98816 5.64418 8.29972C5.15033 8.61127 4.75758 9.07031 4.46591 9.67685C4.17424 10.2834 4.02841 11.0275 4.02841 11.9091C4.02841 12.7907 4.1759 13.5348 4.47088 14.1413C4.76586 14.7479 5.16525 15.2069 5.66903 15.5185C6.17282 15.83 6.73958 15.9858 7.36932 15.9858C7.95265 15.9858 8.46638 15.8615 8.91051 15.6129C9.35795 15.361 9.70597 15.0064 9.95455 14.549C10.2064 14.0883 10.3324 13.5464 10.3324 12.9233L10.7102 13.0028H7.64773V11.9091H11.5256V13.0028C11.5256 13.8414 11.3466 14.5705 10.9886 15.1903C10.634 15.8101 10.1435 16.2907 9.51705 16.6321C8.89394 16.9702 8.17803 17.1392 7.36932 17.1392C6.4678 17.1392 5.67566 16.9271 4.9929 16.5028C4.31345 16.0786 3.78314 15.4754 3.40199 14.6932C3.02415 13.911 2.83523 12.983 2.83523 11.9091C2.83523 11.1037 2.94295 10.3795 3.15838 9.73651C3.37713 9.0902 3.68537 8.54001 4.0831 8.08594C4.48082 7.63187 4.95147 7.28385 5.49503 7.0419C6.03859 6.79995 6.63684 6.67898 7.28977 6.67898C7.8267 6.67898 8.32718 6.76018 8.79119 6.92258C9.25852 7.08168 9.67448 7.30871 10.0391 7.60369C10.407 7.89536 10.7135 8.24503 10.9588 8.6527C11.2041 9.05705 11.3731 9.50616 11.4659 10H10.1932ZM20.5975 10C20.4881 9.66525 20.3439 9.36529 20.165 9.10014C19.9893 8.83168 19.7788 8.60298 19.5336 8.41406C19.2916 8.22514 19.0165 8.08097 18.7083 7.98153C18.4 7.8821 18.062 7.83239 17.6941 7.83239C17.0909 7.83239 16.5423 7.98816 16.0485 8.29972C15.5546 8.61127 15.1619 9.07031 14.8702 9.67685C14.5785 10.2834 14.4327 11.0275 14.4327 11.9091C14.4327 12.7907 14.5802 13.5348 14.8752 14.1413C15.1702 14.7479 15.5695 15.2069 16.0733 15.5185C16.5771 15.83 17.1439 15.9858 17.7736 15.9858C18.3569 15.9858 18.8707 15.8615 19.3148 15.6129C19.7623 15.361 20.1103 15.0064 20.3588 14.549C20.6107 14.0883 20.7367 13.5464 20.7367 12.9233L21.1145 13.0028H18.052V11.9091H21.9299V13.0028C21.9299 13.8414 21.7509 14.5705 21.3929 15.1903C21.0383 15.8101 20.5478 16.2907 19.9213 16.6321C19.2982 16.9702 18.5823 17.1392 17.7736 17.1392C16.8721 17.1392 16.08 16.9271 15.3972 16.5028C14.7177 16.0786 14.1874 15.4754 13.8063 14.6932C13.4284 13.911 13.2395 12.983 13.2395 11.9091C13.2395 11.1037 13.3472 10.3795 13.5627 9.73651C13.7814 9.0902 14.0897 8.54001 14.4874 8.08594C14.8851 7.63187 15.3558 7.28385 15.8993 7.0419C16.4429 6.79995 17.0411 6.67898 17.6941 6.67898C18.231 6.67898 18.7315 6.76018 19.1955 6.92258C19.6628 7.08168 20.0788 7.30871 20.4434 7.60369C20.8113 7.89536 21.1178 8.24503 21.3631 8.6527C21.6084 9.05705 21.7774 9.50616 21.8702 10H20.5975Z" fill="white"/>
</svg>
