<svg width="430" height="37" viewBox="0 0 430 37" fill="none" xmlns="http://www.w3.org/2000/svg">
<rect width="430" height="37" fill="#DAB5F0"/>
<rect width="23" height="37" fill="#E8C3FF"/>
<rect x="175" width="23" height="37" fill="#E8C3FF"/>
<rect x="350" width="23" height="37" fill="#E8C3FF"/>
<rect x="35" width="23" height="37" fill="#E8C3FF"/>
<rect x="210" width="23" height="37" fill="#E8C3FF"/>
<rect x="385" width="23" height="37" fill="#E8C3FF"/>
<rect x="420" width="10" height="37" fill="#E8C3FF"/>
<rect x="70" width="23" height="37" fill="#E8C3FF"/>
<rect x="245" width="23" height="37" fill="#E8C3FF"/>
<rect x="105" width="23" height="37" fill="#E8C3FF"/>
<rect x="280" width="23" height="37" fill="#E8C3FF"/>
<rect x="140" width="23" height="37" fill="#E8C3FF"/>
<rect x="315" width="23" height="37" fill="#E8C3FF"/>
<g filter="url(#filter0_d_78_90)">
<rect x="155" y="7" width="115" height="21" rx="6" fill="#B5F0C2"/>
</g>
<path d="M173.977 12.2727V21H172.955L168.199 14.1477H168.114V21H167.057V12.2727H168.08L172.852 19.142H172.938V12.2727H173.977ZM178.615 21.1364C178.024 21.1364 177.505 20.9957 177.059 20.7145C176.616 20.4332 176.27 20.0398 176.02 19.5341C175.772 19.0284 175.649 18.4375 175.649 17.7614C175.649 17.0795 175.772 16.4844 176.02 15.9759C176.27 15.4673 176.616 15.0724 177.059 14.7912C177.505 14.5099 178.024 14.3693 178.615 14.3693C179.206 14.3693 179.723 14.5099 180.166 14.7912C180.612 15.0724 180.958 15.4673 181.206 15.9759C181.456 16.4844 181.581 17.0795 181.581 17.7614C181.581 18.4375 181.456 19.0284 181.206 19.5341C180.958 20.0398 180.612 20.4332 180.166 20.7145C179.723 20.9957 179.206 21.1364 178.615 21.1364ZM178.615 20.233C179.064 20.233 179.433 20.1179 179.723 19.8878C180.012 19.6577 180.227 19.3551 180.366 18.9801C180.505 18.6051 180.575 18.1989 180.575 17.7614C180.575 17.3239 180.505 16.9162 180.366 16.5384C180.227 16.1605 180.012 15.8551 179.723 15.6222C179.433 15.3892 179.064 15.2727 178.615 15.2727C178.166 15.2727 177.797 15.3892 177.507 15.6222C177.217 15.8551 177.002 16.1605 176.863 16.5384C176.724 16.9162 176.654 17.3239 176.654 17.7614C176.654 18.1989 176.724 18.6051 176.863 18.9801C177.002 19.3551 177.217 19.6577 177.507 19.8878C177.797 20.1179 178.166 20.233 178.615 20.233ZM187.752 15.9205L186.849 16.1761C186.792 16.0256 186.708 15.8793 186.597 15.7372C186.489 15.5923 186.342 15.473 186.154 15.3793C185.967 15.2855 185.727 15.2386 185.434 15.2386C185.033 15.2386 184.7 15.331 184.433 15.5156C184.168 15.6974 184.036 15.929 184.036 16.2102C184.036 16.4602 184.127 16.6577 184.309 16.8026C184.491 16.9474 184.775 17.0682 185.161 17.1648L186.133 17.4034C186.718 17.5455 187.154 17.7628 187.441 18.0554C187.728 18.3452 187.871 18.7187 187.871 19.1761C187.871 19.5511 187.763 19.8864 187.548 20.1818C187.335 20.4773 187.036 20.7102 186.653 20.8807C186.269 21.0511 185.823 21.1364 185.315 21.1364C184.647 21.1364 184.094 20.9915 183.657 20.7017C183.219 20.4119 182.942 19.9886 182.826 19.4318L183.781 19.1932C183.871 19.5455 184.043 19.8097 184.296 19.9858C184.552 20.1619 184.886 20.25 185.298 20.25C185.766 20.25 186.138 20.1506 186.414 19.9517C186.692 19.75 186.832 19.5085 186.832 19.2273C186.832 19 186.752 18.8097 186.593 18.6562C186.434 18.5 186.19 18.3835 185.86 18.3068L184.769 18.0511C184.17 17.9091 183.729 17.6889 183.448 17.3906C183.17 17.0895 183.031 16.7131 183.031 16.2614C183.031 15.892 183.134 15.5653 183.342 15.2812C183.552 14.9972 183.837 14.7741 184.198 14.6122C184.562 14.4503 184.974 14.3693 185.434 14.3693C186.082 14.3693 186.59 14.5114 186.96 14.7955C187.332 15.0795 187.596 15.4545 187.752 15.9205ZM194.022 15.9205L193.118 16.1761C193.061 16.0256 192.978 15.8793 192.867 15.7372C192.759 15.5923 192.611 15.473 192.424 15.3793C192.236 15.2855 191.996 15.2386 191.703 15.2386C191.303 15.2386 190.969 15.331 190.702 15.5156C190.438 15.6974 190.306 15.929 190.306 16.2102C190.306 16.4602 190.397 16.6577 190.578 16.8026C190.76 16.9474 191.044 17.0682 191.431 17.1648L192.402 17.4034C192.988 17.5455 193.424 17.7628 193.711 18.0554C193.998 18.3452 194.141 18.7187 194.141 19.1761C194.141 19.5511 194.033 19.8864 193.817 20.1818C193.604 20.4773 193.306 20.7102 192.922 20.8807C192.539 21.0511 192.093 21.1364 191.584 21.1364C190.917 21.1364 190.364 20.9915 189.926 20.7017C189.489 20.4119 189.212 19.9886 189.096 19.4318L190.05 19.1932C190.141 19.5455 190.313 19.8097 190.566 19.9858C190.821 20.1619 191.155 20.25 191.567 20.25C192.036 20.25 192.408 20.1506 192.684 19.9517C192.962 19.75 193.101 19.5085 193.101 19.2273C193.101 19 193.022 18.8097 192.863 18.6562C192.703 18.5 192.459 18.3835 192.13 18.3068L191.039 18.0511C190.439 17.9091 189.999 17.6889 189.718 17.3906C189.439 17.0895 189.3 16.7131 189.3 16.2614C189.3 15.892 189.404 15.5653 189.611 15.2812C189.821 14.9972 190.107 14.7741 190.468 14.6122C190.831 14.4503 191.243 14.3693 191.703 14.3693C192.351 14.3693 192.86 14.5114 193.229 14.7955C193.601 15.0795 193.865 15.4545 194.022 15.9205ZM198.314 21.1364C197.723 21.1364 197.205 20.9957 196.759 20.7145C196.315 20.4332 195.969 20.0398 195.719 19.5341C195.472 19.0284 195.348 18.4375 195.348 17.7614C195.348 17.0795 195.472 16.4844 195.719 15.9759C195.969 15.4673 196.315 15.0724 196.759 14.7912C197.205 14.5099 197.723 14.3693 198.314 14.3693C198.905 14.3693 199.422 14.5099 199.865 14.7912C200.311 15.0724 200.658 15.4673 200.905 15.9759C201.155 16.4844 201.28 17.0795 201.28 17.7614C201.28 18.4375 201.155 19.0284 200.905 19.5341C200.658 20.0398 200.311 20.4332 199.865 20.7145C199.422 20.9957 198.905 21.1364 198.314 21.1364ZM198.314 20.233C198.763 20.233 199.132 20.1179 199.422 19.8878C199.712 19.6577 199.926 19.3551 200.065 18.9801C200.205 18.6051 200.274 18.1989 200.274 17.7614C200.274 17.3239 200.205 16.9162 200.065 16.5384C199.926 16.1605 199.712 15.8551 199.422 15.6222C199.132 15.3892 198.763 15.2727 198.314 15.2727C197.865 15.2727 197.496 15.3892 197.206 15.6222C196.916 15.8551 196.702 16.1605 196.562 16.5384C196.423 16.9162 196.354 17.3239 196.354 17.7614C196.354 18.1989 196.423 18.6051 196.562 18.9801C196.702 19.3551 196.916 19.6577 197.206 19.8878C197.496 20.1179 197.865 20.233 198.314 20.233ZM207.451 15.9205L206.548 16.1761C206.491 16.0256 206.407 15.8793 206.297 15.7372C206.189 15.5923 206.041 15.473 205.853 15.3793C205.666 15.2855 205.426 15.2386 205.133 15.2386C204.733 15.2386 204.399 15.331 204.132 15.5156C203.868 15.6974 203.735 15.929 203.735 16.2102C203.735 16.4602 203.826 16.6577 204.008 16.8026C204.19 16.9474 204.474 17.0682 204.86 17.1648L205.832 17.4034C206.417 17.5455 206.853 17.7628 207.14 18.0554C207.427 18.3452 207.571 18.7187 207.571 19.1761C207.571 19.5511 207.463 19.8864 207.247 20.1818C207.034 20.4773 206.735 20.7102 206.352 20.8807C205.968 21.0511 205.522 21.1364 205.014 21.1364C204.346 21.1364 203.794 20.9915 203.356 20.7017C202.919 20.4119 202.642 19.9886 202.525 19.4318L203.48 19.1932C203.571 19.5455 203.743 19.8097 203.995 19.9858C204.251 20.1619 204.585 20.25 204.997 20.25C205.466 20.25 205.838 20.1506 206.113 19.9517C206.392 19.75 206.531 19.5085 206.531 19.2273C206.531 19 206.451 18.8097 206.292 18.6562C206.133 18.5 205.889 18.3835 205.559 18.3068L204.468 18.0511C203.869 17.9091 203.429 17.6889 203.147 17.3906C202.869 17.0895 202.73 16.7131 202.73 16.2614C202.73 15.892 202.833 15.5653 203.041 15.2812C203.251 14.9972 203.537 14.7741 203.897 14.6122C204.261 14.4503 204.673 14.3693 205.133 14.3693C205.781 14.3693 206.289 14.5114 206.659 14.7955C207.031 15.0795 207.295 15.4545 207.451 15.9205ZM212.596 21V12.2727H215.545C216.229 12.2727 216.789 12.3963 217.224 12.6435C217.661 12.8878 217.985 13.2188 218.195 13.6364C218.406 14.054 218.511 14.5199 218.511 15.0341C218.511 15.5483 218.406 16.0156 218.195 16.4361C217.988 16.8565 217.667 17.1918 217.232 17.4418C216.798 17.6889 216.241 17.8125 215.562 17.8125H213.448V16.875H215.528C215.996 16.875 216.373 16.794 216.657 16.6321C216.941 16.4702 217.147 16.2514 217.275 15.9759C217.406 15.6974 217.471 15.3835 217.471 15.0341C217.471 14.6847 217.406 14.3722 217.275 14.0966C217.147 13.821 216.94 13.6051 216.653 13.4489C216.366 13.2898 215.985 13.2102 215.511 13.2102H213.653V21H212.596ZM220.077 21V14.4545H221.048V15.4432H221.116C221.236 15.1193 221.452 14.8565 221.764 14.6548C222.077 14.4531 222.429 14.3523 222.821 14.3523C222.895 14.3523 222.987 14.3537 223.098 14.3565C223.209 14.3594 223.293 14.3636 223.349 14.3693V15.392C223.315 15.3835 223.237 15.3707 223.115 15.3537C222.996 15.3338 222.869 15.3239 222.736 15.3239C222.418 15.3239 222.134 15.3906 221.884 15.5241C221.636 15.6548 221.44 15.8366 221.295 16.0696C221.153 16.2997 221.082 16.5625 221.082 16.858V21H220.077ZM227.001 21.1364C226.411 21.1364 225.892 20.9957 225.446 20.7145C225.003 20.4332 224.656 20.0398 224.406 19.5341C224.159 19.0284 224.036 18.4375 224.036 17.7614C224.036 17.0795 224.159 16.4844 224.406 15.9759C224.656 15.4673 225.003 15.0724 225.446 14.7912C225.892 14.5099 226.411 14.3693 227.001 14.3693C227.592 14.3693 228.109 14.5099 228.553 14.7912C228.999 15.0724 229.345 15.4673 229.592 15.9759C229.842 16.4844 229.967 17.0795 229.967 17.7614C229.967 18.4375 229.842 19.0284 229.592 19.5341C229.345 20.0398 228.999 20.4332 228.553 20.7145C228.109 20.9957 227.592 21.1364 227.001 21.1364ZM227.001 20.233C227.45 20.233 227.82 20.1179 228.109 19.8878C228.399 19.6577 228.614 19.3551 228.753 18.9801C228.892 18.6051 228.962 18.1989 228.962 17.7614C228.962 17.3239 228.892 16.9162 228.753 16.5384C228.614 16.1605 228.399 15.8551 228.109 15.6222C227.82 15.3892 227.45 15.2727 227.001 15.2727C226.553 15.2727 226.183 15.3892 225.893 15.6222C225.604 15.8551 225.389 16.1605 225.25 16.5384C225.111 16.9162 225.041 17.3239 225.041 17.7614C225.041 18.1989 225.111 18.6051 225.25 18.9801C225.389 19.3551 225.604 19.6577 225.893 19.8878C226.183 20.1179 226.553 20.233 227.001 20.233ZM233.974 21.1364C233.429 21.1364 232.947 20.9986 232.529 20.723C232.112 20.4446 231.785 20.0526 231.549 19.5469C231.314 19.0384 231.196 18.4375 231.196 17.7443C231.196 17.0568 231.314 16.4602 231.549 15.9545C231.785 15.4489 232.113 15.0582 232.534 14.7827C232.954 14.5071 233.44 14.3693 233.991 14.3693C234.417 14.3693 234.754 14.4403 235.001 14.5824C235.251 14.7216 235.441 14.8807 235.572 15.0597C235.706 15.2358 235.809 15.3807 235.883 15.4943H235.968V12.2727H236.974V21H236.002V19.9943H235.883C235.809 20.1136 235.704 20.2642 235.568 20.446C235.431 20.625 235.237 20.7855 234.984 20.9276C234.731 21.0668 234.395 21.1364 233.974 21.1364ZM234.11 20.233C234.514 20.233 234.855 20.1278 235.133 19.9176C235.412 19.7045 235.623 19.4105 235.768 19.0355C235.913 18.6577 235.985 18.2216 235.985 17.7273C235.985 17.2386 235.914 16.8111 235.772 16.4446C235.63 16.0753 235.42 15.7884 235.142 15.5838C234.863 15.3764 234.52 15.2727 234.11 15.2727C233.684 15.2727 233.329 15.3821 233.045 15.6009C232.764 15.8168 232.552 16.1108 232.41 16.483C232.271 16.8523 232.201 17.267 232.201 17.7273C232.201 18.1932 232.272 18.6165 232.414 18.9972C232.559 19.375 232.772 19.6761 233.054 19.9006C233.338 20.1222 233.69 20.233 234.11 20.233ZM243.081 18.3239V14.4545H244.086V21H243.081V19.892H243.012C242.859 20.2244 242.62 20.5071 242.297 20.7401C241.973 20.9702 241.564 21.0852 241.069 21.0852C240.66 21.0852 240.297 20.9957 239.978 20.8168C239.66 20.6349 239.41 20.3622 239.228 19.9986C239.047 19.6321 238.956 19.1705 238.956 18.6136V14.4545H239.961V18.5455C239.961 19.0227 240.095 19.4034 240.362 19.6875C240.632 19.9716 240.975 20.1136 241.393 20.1136C241.643 20.1136 241.897 20.0497 242.156 19.9219C242.417 19.794 242.636 19.598 242.812 19.3338C242.991 19.0696 243.081 18.733 243.081 18.3239ZM248.775 14.4545V15.3068H245.383V14.4545H248.775ZM246.371 12.8864H247.377V19.125C247.377 19.4091 247.418 19.6222 247.501 19.7642C247.586 19.9034 247.694 19.9972 247.825 20.0455C247.958 20.0909 248.099 20.1136 248.246 20.1136C248.357 20.1136 248.448 20.108 248.519 20.0966C248.59 20.0824 248.647 20.071 248.69 20.0625L248.894 20.9659C248.826 20.9915 248.731 21.017 248.609 21.0426C248.487 21.071 248.332 21.0852 248.144 21.0852C247.86 21.0852 247.582 21.0241 247.309 20.902C247.039 20.7798 246.815 20.5938 246.636 20.3438C246.46 20.0938 246.371 19.7784 246.371 19.3977V12.8864ZM252.876 21.1364C252.286 21.1364 251.767 20.9957 251.321 20.7145C250.878 20.4332 250.531 20.0398 250.281 19.5341C250.034 19.0284 249.911 18.4375 249.911 17.7614C249.911 17.0795 250.034 16.4844 250.281 15.9759C250.531 15.4673 250.878 15.0724 251.321 14.7912C251.767 14.5099 252.286 14.3693 252.876 14.3693C253.467 14.3693 253.984 14.5099 254.428 14.7912C254.874 15.0724 255.22 15.4673 255.467 15.9759C255.717 16.4844 255.842 17.0795 255.842 17.7614C255.842 18.4375 255.717 19.0284 255.467 19.5341C255.22 20.0398 254.874 20.4332 254.428 20.7145C253.984 20.9957 253.467 21.1364 252.876 21.1364ZM252.876 20.233C253.325 20.233 253.695 20.1179 253.984 19.8878C254.274 19.6577 254.489 19.3551 254.628 18.9801C254.767 18.6051 254.837 18.1989 254.837 17.7614C254.837 17.3239 254.767 16.9162 254.628 16.5384C254.489 16.1605 254.274 15.8551 253.984 15.6222C253.695 15.3892 253.325 15.2727 252.876 15.2727C252.428 15.2727 252.058 15.3892 251.768 15.6222C251.479 15.8551 251.264 16.1605 251.125 16.5384C250.986 16.9162 250.916 17.3239 250.916 17.7614C250.916 18.1989 250.986 18.6051 251.125 18.9801C251.264 19.3551 251.479 19.6577 251.768 19.8878C252.058 20.1179 252.428 20.233 252.876 20.233ZM262.014 15.9205L261.11 16.1761C261.054 16.0256 260.97 15.8793 260.859 15.7372C260.751 15.5923 260.603 15.473 260.416 15.3793C260.228 15.2855 259.988 15.2386 259.696 15.2386C259.295 15.2386 258.961 15.331 258.694 15.5156C258.43 15.6974 258.298 15.929 258.298 16.2102C258.298 16.4602 258.389 16.6577 258.571 16.8026C258.752 16.9474 259.037 17.0682 259.423 17.1648L260.395 17.4034C260.98 17.5455 261.416 17.7628 261.703 18.0554C261.99 18.3452 262.133 18.7187 262.133 19.1761C262.133 19.5511 262.025 19.8864 261.809 20.1818C261.596 20.4773 261.298 20.7102 260.914 20.8807C260.531 21.0511 260.085 21.1364 259.576 21.1364C258.909 21.1364 258.356 20.9915 257.919 20.7017C257.481 20.4119 257.204 19.9886 257.088 19.4318L258.042 19.1932C258.133 19.5455 258.305 19.8097 258.558 19.9858C258.814 20.1619 259.147 20.25 259.559 20.25C260.028 20.25 260.4 20.1506 260.676 19.9517C260.954 19.75 261.093 19.5085 261.093 19.2273C261.093 19 261.014 18.8097 260.855 18.6562C260.696 18.5 260.451 18.3835 260.122 18.3068L259.031 18.0511C258.431 17.9091 257.991 17.6889 257.71 17.3906C257.431 17.0895 257.292 16.7131 257.292 16.2614C257.292 15.892 257.396 15.5653 257.603 15.2812C257.814 14.9972 258.099 14.7741 258.46 14.6122C258.824 14.4503 259.235 14.3693 259.696 14.3693C260.343 14.3693 260.852 14.5114 261.221 14.7955C261.593 15.0795 261.858 15.4545 262.014 15.9205Z" fill="black"/>
<defs>
<filter id="filter0_d_78_90" x="151" y="7" width="123" height="29" filterUnits="userSpaceOnUse" color-interpolation-filters="sRGB">
<feFlood flood-opacity="0" result="BackgroundImageFix"/>
<feColorMatrix in="SourceAlpha" type="matrix" values="0 0 0 0 0 0 0 0 0 0 0 0 0 0 0 0 0 0 127 0" result="hardAlpha"/>
<feOffset dy="4"/>
<feGaussianBlur stdDeviation="2"/>
<feComposite in2="hardAlpha" operator="out"/>
<feColorMatrix type="matrix" values="0 0 0 0 0 0 0 0 0 0 0 0 0 0 0 0 0 0 0.25 0"/>
<feBlend mode="normal" in2="BackgroundImageFix" result="effect1_dropShadow_78_90"/>
<feBlend mode="normal" in="SourceGraphic" in2="effect1_dropShadow_78_90" result="shape"/>
</filter>
</defs>
</svg>
