<svg width="138" height="96" viewBox="0 0 138 96" fill="none" xmlns="http://www.w3.org/2000/svg">
<path d="M15.5455 13.5455C15.4091 12.3939 14.8561 11.5 13.8864 10.8636C12.9167 10.2273 11.7273 9.90909 10.3182 9.90909C9.28788 9.90909 8.38636 10.0758 7.61364 10.4091C6.84849 10.7424 6.25 11.2008 5.81818 11.7841C5.39394 12.3674 5.18182 13.0303 5.18182 13.7727C5.18182 14.3939 5.32955 14.928 5.625 15.375C5.92803 15.8144 6.31439 16.1818 6.78409 16.4773C7.25379 16.7652 7.74621 17.0038 8.26136 17.1932C8.77652 17.375 9.25 17.5227 9.68182 17.6364L12.0455 18.2727C12.6515 18.4318 13.3258 18.6515 14.0682 18.9318C14.8182 19.2121 15.5341 19.5947 16.2159 20.0795C16.9053 20.5568 17.4735 21.1705 17.9205 21.9205C18.3674 22.6705 18.5909 23.5909 18.5909 24.6818C18.5909 25.9394 18.2614 27.0758 17.6023 28.0909C16.9508 29.1061 15.9962 29.9129 14.7386 30.5114C13.4886 31.1098 11.9697 31.4091 10.1818 31.4091C8.51515 31.4091 7.07197 31.1402 5.85227 30.6023C4.64015 30.0644 3.68561 29.3144 2.98864 28.3523C2.29924 27.3902 1.90909 26.2727 1.81818 25H4.72727C4.80303 25.8788 5.09848 26.6061 5.61364 27.1818C6.13636 27.75 6.79545 28.1742 7.59091 28.4545C8.39394 28.7273 9.25758 28.8636 10.1818 28.8636C11.2576 28.8636 12.2235 28.6894 13.0795 28.3409C13.9356 27.9848 14.6136 27.4924 15.1136 26.8636C15.6136 26.2273 15.8636 25.4848 15.8636 24.6364C15.8636 23.8636 15.6477 23.2348 15.2159 22.75C14.7841 22.2652 14.2159 21.8712 13.5114 21.5682C12.8068 21.2652 12.0455 21 11.2273 20.7727L8.36364 19.9545C6.54545 19.4318 5.10606 18.6856 4.04545 17.7159C2.98485 16.7462 2.45455 15.4773 2.45455 13.9091C2.45455 12.6061 2.80682 11.4697 3.51136 10.5C4.22348 9.52273 5.17803 8.76515 6.375 8.22727C7.57955 7.68182 8.92424 7.40909 10.4091 7.40909C11.9091 7.40909 13.2424 7.67803 14.4091 8.21591C15.5758 8.74621 16.5 9.47348 17.1818 10.3977C17.8712 11.322 18.2348 12.3712 18.2727 13.5455H15.5455ZM21.9517 10.2273V7.72727H39.4062V10.2273H32.0881V31H29.2699V10.2273H21.9517ZM43.7557 31V7.72727H51.6193C53.4375 7.72727 54.9299 8.03788 56.0966 8.65909C57.2633 9.27273 58.1269 10.1174 58.6875 11.1932C59.2481 12.2689 59.5284 13.4924 59.5284 14.8636C59.5284 16.2348 59.2481 17.4508 58.6875 18.5114C58.1269 19.572 57.267 20.4053 56.108 21.0114C54.9489 21.6098 53.4678 21.9091 51.6648 21.9091H45.3011V19.3636H51.5739C52.8163 19.3636 53.8163 19.1818 54.5739 18.8182C55.339 18.4545 55.892 17.9394 56.233 17.2727C56.5814 16.5985 56.7557 15.7955 56.7557 14.8636C56.7557 13.9318 56.5814 13.1174 56.233 12.4205C55.8845 11.7235 55.3277 11.1856 54.5625 10.8068C53.7973 10.4205 52.786 10.2273 51.5284 10.2273H46.5739V31H43.7557ZM54.7102 20.5455L60.4375 31H57.1648L51.5284 20.5455H54.7102ZM64.2244 31V7.72727H78.2699V10.2273H67.0426V18.0909H77.5426V20.5909H67.0426V28.5H78.4517V31H64.2244ZM83.3494 31V7.72727H97.3949V10.2273H86.1676V18.0909H96.6676V20.5909H86.1676V28.5H97.5767V31H83.3494ZM24.4432 70V46.7273H27.2614V67.5H38.0795V70H24.4432ZM42.4432 70V46.7273H45.2614V67.5H56.0795V70H42.4432ZM60.4432 70V46.7273H74.4886V49.2273H63.2614V57.0909H73.7614V59.5909H63.2614V67.5H74.6705V70H60.4432ZM77.5682 46.7273H80.7955L87.25 57.5909H87.5227L93.9773 46.7273H97.2045L88.7955 60.4091V70H85.9773V60.4091L77.5682 46.7273Z" fill="white"/>
<path d="M101.202 10.2273V7.72727H118.656V10.2273H111.338V31H108.52V10.2273H101.202ZM3.77273 70H0.818182L9.36364 46.7273H12.2727L20.8182 70H17.8636L10.9091 50.4091H10.7273L3.77273 70ZM4.86364 60.9091H16.7727V63.4091H4.86364V60.9091Z" fill="#DAB5F0"/>
<path d="M6.0225 87.45C6.5775 87.45 6.9675 87.35 7.1925 87.15C7.4175 86.945 7.53 86.6525 7.53 86.2725C7.53 86.0875 7.505 85.925 7.455 85.785C7.41 85.645 7.3325 85.53 7.2225 85.44C7.1175 85.35 6.975 85.2825 6.795 85.2375C6.62 85.1925 6.4025 85.17 6.1425 85.17H5.16V87.45H6.0225ZM6.1425 84.27C7.0075 84.27 7.645 84.4275 8.055 84.7425C8.47 85.0525 8.6775 85.5125 8.6775 86.1225C8.6775 86.5925 8.545 86.9925 8.28 87.3225C8.015 87.6525 7.6175 87.8775 7.0875 87.9975C7.1725 88.0525 7.245 88.1175 7.305 88.1925C7.37 88.2675 7.43 88.355 7.485 88.455L9.195 90.96H8.0775C7.9125 90.96 7.7925 90.8975 7.7175 90.7725L6.2025 88.5075C6.1575 88.4425 6.1025 88.3925 6.0375 88.3575C5.9775 88.3225 5.8825 88.305 5.7525 88.305H5.16V90.96H3.99V84.27H6.1425ZM6.2325 92.43C6.6725 92.43 7.095 92.375 7.5 92.265C7.91 92.15 8.29 91.99 8.64 91.785C8.995 91.575 9.315 91.325 9.6 91.035C9.89 90.745 10.1375 90.4225 10.3425 90.0675C10.5475 89.7075 10.705 89.3225 10.815 88.9125C10.93 88.5025 10.9875 88.075 10.9875 87.63C10.9875 86.96 10.8625 86.3325 10.6125 85.7475C10.3675 85.1575 10.03 84.645 9.6 84.21C9.175 83.77 8.6725 83.425 8.0925 83.175C7.5125 82.92 6.8925 82.7925 6.2325 82.7925C5.7925 82.7925 5.37 82.85 4.965 82.965C4.56 83.08 4.1825 83.2425 3.8325 83.4525C3.4875 83.6575 3.17 83.9075 2.88 84.2025C2.595 84.4975 2.35 84.825 2.145 85.185C1.945 85.54 1.79 85.925 1.68 86.34C1.57 86.755 1.515 87.185 1.515 87.63C1.515 88.075 1.57 88.5025 1.68 88.9125C1.79 89.3225 1.945 89.7075 2.145 90.0675C2.35 90.4225 2.595 90.745 2.88 91.035C3.17 91.325 3.4875 91.575 3.8325 91.785C4.1825 91.99 4.56 92.15 4.965 92.265C5.37 92.375 5.7925 92.43 6.2325 92.43ZM6.2325 82.14C6.7375 82.14 7.2225 82.205 7.6875 82.335C8.1575 82.465 8.595 82.65 9 82.89C9.405 83.13 9.775 83.4175 10.11 83.7525C10.445 84.0825 10.73 84.4525 10.965 84.8625C11.205 85.2675 11.39 85.705 11.52 86.175C11.65 86.64 11.715 87.125 11.715 87.63C11.715 88.13 11.65 88.615 11.52 89.085C11.39 89.55 11.205 89.985 10.965 90.39C10.73 90.795 10.445 91.165 10.11 91.5C9.775 91.83 9.405 92.115 9 92.355C8.595 92.595 8.1575 92.78 7.6875 92.91C7.2225 93.04 6.7375 93.105 6.2325 93.105C5.7275 93.105 5.2425 93.04 4.7775 92.91C4.3125 92.78 3.8775 92.595 3.4725 92.355C3.0675 92.115 2.6975 91.83 2.3625 91.5C2.0325 91.165 1.7475 90.795 1.5075 90.39C1.2675 89.985 1.0825 89.55 0.9525 89.085C0.8225 88.62 0.7575 88.135 0.7575 87.63C0.7575 87.125 0.8225 86.64 0.9525 86.175C1.0825 85.705 1.2675 85.2675 1.5075 84.8625C1.7475 84.4525 2.0325 84.0825 2.3625 83.7525C2.6975 83.4175 3.0675 83.13 3.4725 82.89C3.8775 82.65 4.3125 82.465 4.7775 82.335C5.2425 82.205 5.7275 82.14 6.2325 82.14ZM23.7062 91.7325C23.8512 91.7325 23.9662 91.775 24.0512 91.86C24.1362 91.945 24.1787 92.055 24.1787 92.19V93H17.0087V92.5425C17.0087 92.4475 17.0287 92.35 17.0687 92.25C17.1087 92.15 17.1712 92.0575 17.2562 91.9725L20.6987 88.515C20.9837 88.225 21.2437 87.9475 21.4787 87.6825C21.7137 87.4125 21.9137 87.1425 22.0787 86.8725C22.2437 86.6025 22.3712 86.33 22.4612 86.055C22.5512 85.775 22.5962 85.4775 22.5962 85.1625C22.5962 84.8475 22.5462 84.5725 22.4462 84.3375C22.3462 84.0975 22.2087 83.9 22.0337 83.745C21.8637 83.59 21.6612 83.475 21.4262 83.4C21.1912 83.32 20.9387 83.28 20.6687 83.28C20.3937 83.28 20.1412 83.32 19.9112 83.4C19.6812 83.48 19.4762 83.5925 19.2962 83.7375C19.1212 83.8775 18.9737 84.045 18.8537 84.24C18.7337 84.435 18.6487 84.65 18.5987 84.885C18.5387 85.06 18.4562 85.1775 18.3512 85.2375C18.2512 85.2925 18.1087 85.3075 17.9237 85.2825L17.2262 85.1625C17.2962 84.6725 17.4312 84.24 17.6312 83.865C17.8362 83.485 18.0912 83.1675 18.3962 82.9125C18.7062 82.6575 19.0587 82.465 19.4537 82.335C19.8487 82.2 20.2762 82.1325 20.7362 82.1325C21.1912 82.1325 21.6162 82.2 22.0112 82.335C22.4062 82.47 22.7487 82.6675 23.0387 82.9275C23.3287 83.1825 23.5562 83.495 23.7212 83.865C23.8862 84.235 23.9687 84.655 23.9687 85.125C23.9687 85.525 23.9087 85.8975 23.7887 86.2425C23.6687 86.5825 23.5062 86.9075 23.3012 87.2175C23.0962 87.5275 22.8587 87.83 22.5887 88.125C22.3237 88.42 22.0412 88.7175 21.7412 89.0175L18.9062 91.9125C19.1062 91.8575 19.3087 91.815 19.5137 91.785C19.7187 91.75 19.9162 91.7325 20.1062 91.7325H23.7062ZM33.2549 87.63C33.2549 88.57 33.1524 89.385 32.9474 90.075C32.7474 90.76 32.4724 91.3275 32.1224 91.7775C31.7724 92.2275 31.3574 92.5625 30.8774 92.7825C30.4024 93.0025 29.8924 93.1125 29.3474 93.1125C28.7974 93.1125 28.2849 93.0025 27.8099 92.7825C27.3399 92.5625 26.9299 92.2275 26.5799 91.7775C26.2299 91.3275 25.9549 90.76 25.7549 90.075C25.5549 89.385 25.4549 88.57 25.4549 87.63C25.4549 86.69 25.5549 85.875 25.7549 85.185C25.9549 84.495 26.2299 83.925 26.5799 83.475C26.9299 83.02 27.3399 82.6825 27.8099 82.4625C28.2849 82.2425 28.7974 82.1325 29.3474 82.1325C29.8924 82.1325 30.4024 82.2425 30.8774 82.4625C31.3574 82.6825 31.7724 83.02 32.1224 83.475C32.4724 83.925 32.7474 84.495 32.9474 85.185C33.1524 85.875 33.2549 86.69 33.2549 87.63ZM31.8674 87.63C31.8674 86.81 31.7974 86.1225 31.6574 85.5675C31.5224 85.0075 31.3374 84.5575 31.1024 84.2175C30.8724 83.8775 30.6049 83.635 30.2999 83.49C29.9949 83.34 29.6774 83.265 29.3474 83.265C29.0174 83.265 28.6999 83.34 28.3949 83.49C28.0899 83.635 27.8224 83.8775 27.5924 84.2175C27.3624 84.5575 27.1774 85.0075 27.0374 85.5675C26.9024 86.1225 26.8349 86.81 26.8349 87.63C26.8349 88.45 26.9024 89.1375 27.0374 89.6925C27.1774 90.2475 27.3624 90.695 27.5924 91.035C27.8224 91.375 28.0899 91.62 28.3949 91.77C28.6999 91.915 29.0174 91.9875 29.3474 91.9875C29.6774 91.9875 29.9949 91.915 30.2999 91.77C30.6049 91.62 30.8724 91.375 31.1024 91.035C31.3374 90.695 31.5224 90.2475 31.6574 89.6925C31.7974 89.1375 31.8674 88.45 31.8674 87.63ZM41.1086 91.7325C41.2536 91.7325 41.3686 91.775 41.4536 91.86C41.5386 91.945 41.5811 92.055 41.5811 92.19V93H34.4111V92.5425C34.4111 92.4475 34.4311 92.35 34.4711 92.25C34.5111 92.15 34.5736 92.0575 34.6586 91.9725L38.1011 88.515C38.3861 88.225 38.6461 87.9475 38.8811 87.6825C39.1161 87.4125 39.3161 87.1425 39.4811 86.8725C39.6461 86.6025 39.7736 86.33 39.8636 86.055C39.9536 85.775 39.9986 85.4775 39.9986 85.1625C39.9986 84.8475 39.9486 84.5725 39.8486 84.3375C39.7486 84.0975 39.6111 83.9 39.4361 83.745C39.2661 83.59 39.0636 83.475 38.8286 83.4C38.5936 83.32 38.3411 83.28 38.0711 83.28C37.7961 83.28 37.5436 83.32 37.3136 83.4C37.0836 83.48 36.8786 83.5925 36.6986 83.7375C36.5236 83.8775 36.3761 84.045 36.2561 84.24C36.1361 84.435 36.0511 84.65 36.0011 84.885C35.9411 85.06 35.8586 85.1775 35.7536 85.2375C35.6536 85.2925 35.5111 85.3075 35.3261 85.2825L34.6286 85.1625C34.6986 84.6725 34.8336 84.24 35.0336 83.865C35.2386 83.485 35.4936 83.1675 35.7986 82.9125C36.1086 82.6575 36.4611 82.465 36.8561 82.335C37.2511 82.2 37.6786 82.1325 38.1386 82.1325C38.5936 82.1325 39.0186 82.2 39.4136 82.335C39.8086 82.47 40.1511 82.6675 40.4411 82.9275C40.7311 83.1825 40.9586 83.495 41.1236 83.865C41.2886 84.235 41.3711 84.655 41.3711 85.125C41.3711 85.525 41.3111 85.8975 41.1911 86.2425C41.0711 86.5825 40.9086 86.9075 40.7036 87.2175C40.4986 87.5275 40.2611 87.83 39.9911 88.125C39.7261 88.42 39.4436 88.7175 39.1436 89.0175L36.3086 91.9125C36.5086 91.8575 36.7111 91.815 36.9161 91.785C37.1211 91.75 37.3186 91.7325 37.5086 91.7325H41.1086ZM43.3822 85.1625C43.4522 84.6725 43.5872 84.24 43.7872 83.865C43.9872 83.485 44.2397 83.1675 44.5447 82.9125C44.8547 82.6575 45.2072 82.465 45.6022 82.335C46.0022 82.2 46.4322 82.1325 46.8922 82.1325C47.3472 82.1325 47.7672 82.1975 48.1522 82.3275C48.5372 82.4575 48.8672 82.6425 49.1422 82.8825C49.4222 83.1225 49.6397 83.4125 49.7947 83.7525C49.9497 84.0925 50.0272 84.47 50.0272 84.885C50.0272 85.225 49.9822 85.53 49.8922 85.8C49.8072 86.065 49.6822 86.2975 49.5172 86.4975C49.3572 86.6975 49.1622 86.8675 48.9322 87.0075C48.7022 87.1475 48.4447 87.2625 48.1597 87.3525C48.8597 87.5325 49.3847 87.8425 49.7347 88.2825C50.0897 88.7175 50.2672 89.2625 50.2672 89.9175C50.2672 90.4125 50.1722 90.8575 49.9822 91.2525C49.7972 91.6475 49.5422 91.985 49.2172 92.265C48.8922 92.54 48.5122 92.7525 48.0772 92.9025C47.6472 93.0475 47.1847 93.12 46.6897 93.12C46.1197 93.12 45.6322 93.05 45.2272 92.91C44.8222 92.765 44.4797 92.5675 44.1997 92.3175C43.9197 92.0675 43.6897 91.7725 43.5097 91.4325C43.3297 91.0875 43.1772 90.715 43.0522 90.315L43.6297 90.075C43.7797 90.01 43.9247 89.9925 44.0647 90.0225C44.2097 90.0525 44.3147 90.135 44.3797 90.27C44.4447 90.41 44.5247 90.5775 44.6197 90.7725C44.7197 90.9675 44.8547 91.155 45.0247 91.335C45.1947 91.515 45.4097 91.6675 45.6697 91.7925C45.9347 91.9175 46.2697 91.98 46.6747 91.98C47.0497 91.98 47.3772 91.92 47.6572 91.8C47.9422 91.675 48.1772 91.515 48.3622 91.32C48.5522 91.125 48.6947 90.9075 48.7897 90.6675C48.8847 90.4275 48.9322 90.19 48.9322 89.955C48.9322 89.665 48.8947 89.4 48.8197 89.16C48.7447 88.92 48.6047 88.7125 48.3997 88.5375C48.1947 88.3625 47.9122 88.225 47.5522 88.125C47.1972 88.025 46.7397 87.975 46.1797 87.975V87.0075C46.6397 87.0025 47.0297 86.9525 47.3497 86.8575C47.6747 86.7625 47.9372 86.6325 48.1372 86.4675C48.3422 86.3025 48.4897 86.105 48.5797 85.875C48.6747 85.645 48.7222 85.39 48.7222 85.11C48.7222 84.8 48.6722 84.53 48.5722 84.3C48.4772 84.07 48.3447 83.88 48.1747 83.73C48.0047 83.58 47.8022 83.4675 47.5672 83.3925C47.3372 83.3175 47.0872 83.28 46.8172 83.28C46.5472 83.28 46.2947 83.32 46.0597 83.4C45.8297 83.48 45.6247 83.5925 45.4447 83.7375C45.2697 83.8775 45.1222 84.045 45.0022 84.24C44.8822 84.435 44.7972 84.65 44.7472 84.885C44.6822 85.06 44.5997 85.1775 44.4997 85.2375C44.4047 85.2925 44.2647 85.3075 44.0797 85.2825L43.3822 85.1625ZM52.0459 87.9375H55.7509V89.07H52.0459V87.9375ZM64.0773 91.7325C64.2223 91.7325 64.3373 91.775 64.4223 91.86C64.5073 91.945 64.5498 92.055 64.5498 92.19V93H57.3798V92.5425C57.3798 92.4475 57.3998 92.35 57.4398 92.25C57.4798 92.15 57.5423 92.0575 57.6273 91.9725L61.0698 88.515C61.3548 88.225 61.6148 87.9475 61.8498 87.6825C62.0848 87.4125 62.2848 87.1425 62.4498 86.8725C62.6148 86.6025 62.7423 86.33 62.8323 86.055C62.9223 85.775 62.9673 85.4775 62.9673 85.1625C62.9673 84.8475 62.9173 84.5725 62.8173 84.3375C62.7173 84.0975 62.5798 83.9 62.4048 83.745C62.2348 83.59 62.0323 83.475 61.7973 83.4C61.5623 83.32 61.3098 83.28 61.0398 83.28C60.7648 83.28 60.5123 83.32 60.2823 83.4C60.0523 83.48 59.8473 83.5925 59.6673 83.7375C59.4923 83.8775 59.3448 84.045 59.2248 84.24C59.1048 84.435 59.0198 84.65 58.9698 84.885C58.9098 85.06 58.8273 85.1775 58.7223 85.2375C58.6223 85.2925 58.4798 85.3075 58.2948 85.2825L57.5973 85.1625C57.6673 84.6725 57.8023 84.24 58.0023 83.865C58.2073 83.485 58.4623 83.1675 58.7673 82.9125C59.0773 82.6575 59.4298 82.465 59.8248 82.335C60.2198 82.2 60.6473 82.1325 61.1073 82.1325C61.5623 82.1325 61.9873 82.2 62.3823 82.335C62.7773 82.47 63.1198 82.6675 63.4098 82.9275C63.6998 83.1825 63.9273 83.495 64.0923 83.865C64.2573 84.235 64.3398 84.655 64.3398 85.125C64.3398 85.525 64.2798 85.8975 64.1598 86.2425C64.0398 86.5825 63.8773 86.9075 63.6723 87.2175C63.4673 87.5275 63.2298 87.83 62.9598 88.125C62.6948 88.42 62.4123 88.7175 62.1123 89.0175L59.2773 91.9125C59.4773 91.8575 59.6798 91.815 59.8848 91.785C60.0898 91.75 60.2873 91.7325 60.4773 91.7325H64.0773ZM73.626 87.63C73.626 88.57 73.5235 89.385 73.3185 90.075C73.1185 90.76 72.8435 91.3275 72.4935 91.7775C72.1435 92.2275 71.7285 92.5625 71.2485 92.7825C70.7735 93.0025 70.2635 93.1125 69.7185 93.1125C69.1685 93.1125 68.656 93.0025 68.181 92.7825C67.711 92.5625 67.301 92.2275 66.951 91.7775C66.601 91.3275 66.326 90.76 66.126 90.075C65.926 89.385 65.826 88.57 65.826 87.63C65.826 86.69 65.926 85.875 66.126 85.185C66.326 84.495 66.601 83.925 66.951 83.475C67.301 83.02 67.711 82.6825 68.181 82.4625C68.656 82.2425 69.1685 82.1325 69.7185 82.1325C70.2635 82.1325 70.7735 82.2425 71.2485 82.4625C71.7285 82.6825 72.1435 83.02 72.4935 83.475C72.8435 83.925 73.1185 84.495 73.3185 85.185C73.5235 85.875 73.626 86.69 73.626 87.63ZM72.2385 87.63C72.2385 86.81 72.1685 86.1225 72.0285 85.5675C71.8935 85.0075 71.7085 84.5575 71.4735 84.2175C71.2435 83.8775 70.976 83.635 70.671 83.49C70.366 83.34 70.0485 83.265 69.7185 83.265C69.3885 83.265 69.071 83.34 68.766 83.49C68.461 83.635 68.1935 83.8775 67.9635 84.2175C67.7335 84.5575 67.5485 85.0075 67.4085 85.5675C67.2735 86.1225 67.206 86.81 67.206 87.63C67.206 88.45 67.2735 89.1375 67.4085 89.6925C67.5485 90.2475 67.7335 90.695 67.9635 91.035C68.1935 91.375 68.461 91.62 68.766 91.77C69.071 91.915 69.3885 91.9875 69.7185 91.9875C70.0485 91.9875 70.366 91.915 70.671 91.77C70.976 91.62 71.2435 91.375 71.4735 91.035C71.7085 90.695 71.8935 90.2475 72.0285 89.6925C72.1685 89.1375 72.2385 88.45 72.2385 87.63ZM81.4796 91.7325C81.6246 91.7325 81.7396 91.775 81.8246 91.86C81.9096 91.945 81.9521 92.055 81.9521 92.19V93H74.7821V92.5425C74.7821 92.4475 74.8021 92.35 74.8421 92.25C74.8821 92.15 74.9446 92.0575 75.0296 91.9725L78.4721 88.515C78.7571 88.225 79.0171 87.9475 79.2521 87.6825C79.4871 87.4125 79.6871 87.1425 79.8521 86.8725C80.0171 86.6025 80.1446 86.33 80.2346 86.055C80.3246 85.775 80.3696 85.4775 80.3696 85.1625C80.3696 84.8475 80.3196 84.5725 80.2196 84.3375C80.1196 84.0975 79.9821 83.9 79.8071 83.745C79.6371 83.59 79.4346 83.475 79.1996 83.4C78.9646 83.32 78.7121 83.28 78.4421 83.28C78.1671 83.28 77.9146 83.32 77.6846 83.4C77.4546 83.48 77.2496 83.5925 77.0696 83.7375C76.8946 83.8775 76.7471 84.045 76.6271 84.24C76.5071 84.435 76.4221 84.65 76.3721 84.885C76.3121 85.06 76.2296 85.1775 76.1246 85.2375C76.0246 85.2925 75.8821 85.3075 75.6971 85.2825L74.9996 85.1625C75.0696 84.6725 75.2046 84.24 75.4046 83.865C75.6096 83.485 75.8646 83.1675 76.1696 82.9125C76.4796 82.6575 76.8321 82.465 77.2271 82.335C77.6221 82.2 78.0496 82.1325 78.5096 82.1325C78.9646 82.1325 79.3896 82.2 79.7846 82.335C80.1796 82.47 80.5221 82.6675 80.8121 82.9275C81.1021 83.1825 81.3296 83.495 81.4946 83.865C81.6596 84.235 81.7421 84.655 81.7421 85.125C81.7421 85.525 81.6821 85.8975 81.5621 86.2425C81.4421 86.5825 81.2796 86.9075 81.0746 87.2175C80.8696 87.5275 80.6321 87.83 80.3621 88.125C80.0971 88.42 79.8146 88.7175 79.5146 89.0175L76.6796 91.9125C76.8796 91.8575 77.0821 91.815 77.2871 91.785C77.4921 91.75 77.6896 91.7325 77.8796 91.7325H81.4796ZM83.7533 85.1625C83.8233 84.6725 83.9583 84.24 84.1583 83.865C84.3583 83.485 84.6108 83.1675 84.9158 82.9125C85.2258 82.6575 85.5783 82.465 85.9733 82.335C86.3733 82.2 86.8033 82.1325 87.2633 82.1325C87.7183 82.1325 88.1383 82.1975 88.5233 82.3275C88.9083 82.4575 89.2383 82.6425 89.5133 82.8825C89.7933 83.1225 90.0108 83.4125 90.1658 83.7525C90.3208 84.0925 90.3983 84.47 90.3983 84.885C90.3983 85.225 90.3533 85.53 90.2633 85.8C90.1783 86.065 90.0533 86.2975 89.8883 86.4975C89.7283 86.6975 89.5333 86.8675 89.3033 87.0075C89.0733 87.1475 88.8158 87.2625 88.5308 87.3525C89.2308 87.5325 89.7558 87.8425 90.1058 88.2825C90.4608 88.7175 90.6383 89.2625 90.6383 89.9175C90.6383 90.4125 90.5433 90.8575 90.3533 91.2525C90.1683 91.6475 89.9133 91.985 89.5883 92.265C89.2633 92.54 88.8833 92.7525 88.4483 92.9025C88.0183 93.0475 87.5558 93.12 87.0608 93.12C86.4908 93.12 86.0033 93.05 85.5983 92.91C85.1933 92.765 84.8508 92.5675 84.5708 92.3175C84.2908 92.0675 84.0608 91.7725 83.8808 91.4325C83.7008 91.0875 83.5483 90.715 83.4233 90.315L84.0008 90.075C84.1508 90.01 84.2958 89.9925 84.4358 90.0225C84.5808 90.0525 84.6858 90.135 84.7508 90.27C84.8158 90.41 84.8958 90.5775 84.9908 90.7725C85.0908 90.9675 85.2258 91.155 85.3958 91.335C85.5658 91.515 85.7808 91.6675 86.0408 91.7925C86.3058 91.9175 86.6408 91.98 87.0458 91.98C87.4208 91.98 87.7483 91.92 88.0283 91.8C88.3133 91.675 88.5483 91.515 88.7333 91.32C88.9233 91.125 89.0658 90.9075 89.1608 90.6675C89.2558 90.4275 89.3033 90.19 89.3033 89.955C89.3033 89.665 89.2658 89.4 89.1908 89.16C89.1158 88.92 88.9758 88.7125 88.7708 88.5375C88.5658 88.3625 88.2833 88.225 87.9233 88.125C87.5683 88.025 87.1108 87.975 86.5508 87.975V87.0075C87.0108 87.0025 87.4008 86.9525 87.7208 86.8575C88.0458 86.7625 88.3083 86.6325 88.5083 86.4675C88.7133 86.3025 88.8608 86.105 88.9508 85.875C89.0458 85.645 89.0933 85.39 89.0933 85.11C89.0933 84.8 89.0433 84.53 88.9433 84.3C88.8483 84.07 88.7158 83.88 88.5458 83.73C88.3758 83.58 88.1733 83.4675 87.9383 83.3925C87.7083 83.3175 87.4583 83.28 87.1883 83.28C86.9183 83.28 86.6658 83.32 86.4308 83.4C86.2008 83.48 85.9958 83.5925 85.8158 83.7375C85.6408 83.8775 85.4933 84.045 85.3733 84.24C85.2533 84.435 85.1683 84.65 85.1183 84.885C85.0533 85.06 84.9708 85.1775 84.8708 85.2375C84.7758 85.2925 84.6358 85.3075 84.4508 85.2825L83.7533 85.1625Z" fill="white"/>
</svg>
