<svg width="119" height="63" viewBox="0 0 119 63" fill="none" xmlns="http://www.w3.org/2000/svg">
<path d="M15.5455 6.54545C15.4091 5.39394 14.8561 4.5 13.8864 3.86364C12.9167 3.22727 11.7273 2.90909 10.3182 2.90909C9.28788 2.90909 8.38636 3.07576 7.61364 3.40909C6.84849 3.74242 6.25 4.20076 5.81818 4.78409C5.39394 5.36742 5.18182 6.0303 5.18182 6.77273C5.18182 7.39394 5.32955 7.92803 5.625 8.375C5.92803 8.81439 6.31439 9.18182 6.78409 9.47727C7.25379 9.76515 7.74621 10.0038 8.26136 10.1932C8.77652 10.375 9.25 10.5227 9.68182 10.6364L12.0455 11.2727C12.6515 11.4318 13.3258 11.6515 14.0682 11.9318C14.8182 12.2121 15.5341 12.5947 16.2159 13.0795C16.9053 13.5568 17.4735 14.1705 17.9205 14.9205C18.3674 15.6705 18.5909 16.5909 18.5909 17.6818C18.5909 18.9394 18.2614 20.0758 17.6023 21.0909C16.9508 22.1061 15.9962 22.9129 14.7386 23.5114C13.4886 24.1098 11.9697 24.4091 10.1818 24.4091C8.51515 24.4091 7.07197 24.1402 5.85227 23.6023C4.64015 23.0644 3.68561 22.3144 2.98864 21.3523C2.29924 20.3902 1.90909 19.2727 1.81818 18H4.72727C4.80303 18.8788 5.09848 19.6061 5.61364 20.1818C6.13636 20.75 6.79545 21.1742 7.59091 21.4545C8.39394 21.7273 9.25758 21.8636 10.1818 21.8636C11.2576 21.8636 12.2235 21.6894 13.0795 21.3409C13.9356 20.9848 14.6136 20.4924 15.1136 19.8636C15.6136 19.2273 15.8636 18.4848 15.8636 17.6364C15.8636 16.8636 15.6477 16.2348 15.2159 15.75C14.7841 15.2652 14.2159 14.8712 13.5114 14.5682C12.8068 14.2652 12.0455 14 11.2273 13.7727L8.36364 12.9545C6.54545 12.4318 5.10606 11.6856 4.04545 10.7159C2.98485 9.74621 2.45455 8.47727 2.45455 6.90909C2.45455 5.60606 2.80682 4.4697 3.51136 3.5C4.22348 2.52273 5.17803 1.76515 6.375 1.22727C7.57955 0.681817 8.92424 0.40909 10.4091 0.40909C11.9091 0.40909 13.2424 0.678029 14.4091 1.21591C15.5758 1.74621 16.5 2.47348 17.1818 3.39773C17.8712 4.32197 18.2348 5.37121 18.2727 6.54545H15.5455ZM21.9517 3.22727V0.727272H39.4062V3.22727H32.0881V24H29.2699V3.22727H21.9517ZM43.7557 24V0.727272H51.6193C53.4375 0.727272 54.9299 1.03788 56.0966 1.65909C57.2633 2.27273 58.1269 3.11742 58.6875 4.19318C59.2481 5.26894 59.5284 6.49242 59.5284 7.86364C59.5284 9.23485 59.2481 10.4508 58.6875 11.5114C58.1269 12.572 57.267 13.4053 56.108 14.0114C54.9489 14.6098 53.4678 14.9091 51.6648 14.9091H45.3011V12.3636H51.5739C52.8163 12.3636 53.8163 12.1818 54.5739 11.8182C55.339 11.4545 55.892 10.9394 56.233 10.2727C56.5814 9.59848 56.7557 8.79545 56.7557 7.86364C56.7557 6.93182 56.5814 6.11742 56.233 5.42045C55.8845 4.72348 55.3277 4.18561 54.5625 3.80682C53.7973 3.42045 52.786 3.22727 51.5284 3.22727H46.5739V24H43.7557ZM54.7102 13.5455L60.4375 24H57.1648L51.5284 13.5455H54.7102ZM64.2244 24V0.727272H78.2699V3.22727H67.0426V11.0909H77.5426V13.5909H67.0426V21.5H78.4517V24H64.2244ZM83.3494 24V0.727272H97.3949V3.22727H86.1676V11.0909H96.6676V13.5909H86.1676V21.5H97.5767V24H83.3494ZM24.4432 63V39.7273H27.2614V60.5H38.0795V63H24.4432ZM42.4432 63V39.7273H45.2614V60.5H56.0795V63H42.4432ZM60.4432 63V39.7273H74.4886V42.2273H63.2614V50.0909H73.7614V52.5909H63.2614V60.5H74.6705V63H60.4432ZM77.5682 39.7273H80.7955L87.25 50.5909H87.5227L93.9773 39.7273H97.2045L88.7955 53.4091V63H85.9773V53.4091L77.5682 39.7273Z" fill="white"/>
<path d="M101.202 3.22727V0.727272H118.656V3.22727H111.338V24H108.52V3.22727H101.202ZM3.77273 63H0.818182L9.36364 39.7273H12.2727L20.8182 63H17.8636L10.9091 43.4091H10.7273L3.77273 63ZM4.86364 53.9091H16.7727V56.4091H4.86364V53.9091Z" fill="#DAB5F0"/>
</svg>
