<svg width="24" height="24" viewBox="0 0 24 24" fill="none" xmlns="http://www.w3.org/2000/svg">
<circle cx="12" cy="12" r="11.5" fill="white" stroke="#DAB5F0"/>
<path d="M14.1932 10C14.0838 9.66525 13.9396 9.36529 13.7607 9.10014C13.585 8.83168 13.3745 8.60298 13.1293 8.41406C12.8873 8.22514 12.6122 8.08097 12.304 7.98153C11.9957 7.8821 11.6577 7.83239 11.2898 7.83239C10.6866 7.83239 10.138 7.98816 9.64418 8.29972C9.15033 8.61127 8.75758 9.07031 8.46591 9.67685C8.17424 10.2834 8.02841 11.0275 8.02841 11.9091C8.02841 12.7907 8.1759 13.5348 8.47088 14.1413C8.76586 14.7479 9.16525 15.2069 9.66903 15.5185C10.1728 15.83 10.7396 15.9858 11.3693 15.9858C11.9527 15.9858 12.4664 15.8615 12.9105 15.6129C13.358 15.361 13.706 15.0064 13.9545 14.549C14.2064 14.0883 14.3324 13.5464 14.3324 12.9233L14.7102 13.0028H11.6477V11.9091H15.5256V13.0028C15.5256 13.8414 15.3466 14.5705 14.9886 15.1903C14.634 15.8101 14.1435 16.2907 13.517 16.6321C12.8939 16.9702 12.178 17.1392 11.3693 17.1392C10.4678 17.1392 9.67566 16.9271 8.9929 16.5028C8.31345 16.0786 7.78314 15.4754 7.40199 14.6932C7.02415 13.911 6.83523 12.983 6.83523 11.9091C6.83523 11.1037 6.94295 10.3795 7.15838 9.73651C7.37713 9.0902 7.68537 8.54001 8.0831 8.08594C8.48082 7.63187 8.95147 7.28385 9.49503 7.0419C10.0386 6.79995 10.6368 6.67898 11.2898 6.67898C11.8267 6.67898 12.3272 6.76018 12.7912 6.92258C13.2585 7.08168 13.6745 7.30871 14.0391 7.60369C14.407 7.89536 14.7135 8.24503 14.9588 8.6527C15.2041 9.05705 15.3731 9.50616 15.4659 10H14.1932Z" fill="#DAB5F0"/>
</svg>
