<svg width="24" height="24" viewBox="0 0 24 24" fill="none" xmlns="http://www.w3.org/2000/svg">
<circle cx="12" cy="12" r="11.5" fill="white" stroke="#DAB5F0"/>
<path d="M9.19318 10C9.08381 9.66525 8.93963 9.36529 8.76065 9.10014C8.58499 8.83168 8.37453 8.60298 8.12926 8.41406C7.88731 8.22514 7.61222 8.08097 7.30398 7.98153C6.99574 7.8821 6.65767 7.83239 6.28977 7.83239C5.68655 7.83239 5.13802 7.98816 4.64418 8.29972C4.15033 8.61127 3.75758 9.07031 3.46591 9.67685C3.17424 10.2834 3.02841 11.0275 3.02841 11.9091C3.02841 12.7907 3.1759 13.5348 3.47088 14.1413C3.76586 14.7479 4.16525 15.2069 4.66903 15.5185C5.17282 15.83 5.73958 15.9858 6.36932 15.9858C6.95265 15.9858 7.46638 15.8615 7.91051 15.6129C8.35795 15.361 8.70597 15.0064 8.95455 14.549C9.20644 14.0883 9.33239 13.5464 9.33239 12.9233L9.71023 13.0028H6.64773V11.9091H10.5256V13.0028C10.5256 13.8414 10.3466 14.5705 9.98864 15.1903C9.634 15.8101 9.14347 16.2907 8.51705 16.6321C7.89394 16.9702 7.17803 17.1392 6.36932 17.1392C5.4678 17.1392 4.67566 16.9271 3.9929 16.5028C3.31345 16.0786 2.78314 15.4754 2.40199 14.6932C2.02415 13.911 1.83523 12.983 1.83523 11.9091C1.83523 11.1037 1.94295 10.3795 2.15838 9.73651C2.37713 9.0902 2.68537 8.54001 3.0831 8.08594C3.48082 7.63187 3.95147 7.28385 4.49503 7.0419C5.03859 6.79995 5.63684 6.67898 6.28977 6.67898C6.8267 6.67898 7.32718 6.76018 7.79119 6.92258C8.25852 7.08168 8.67448 7.30871 9.03906 7.60369C9.40696 7.89536 9.71354 8.24503 9.95881 8.6527C10.2041 9.05705 10.3731 9.50616 10.4659 10H9.19318ZM19.5975 10C19.4881 9.66525 19.3439 9.36529 19.165 9.10014C18.9893 8.83168 18.7788 8.60298 18.5336 8.41406C18.2916 8.22514 18.0165 8.08097 17.7083 7.98153C17.4 7.8821 17.062 7.83239 16.6941 7.83239C16.0909 7.83239 15.5423 7.98816 15.0485 8.29972C14.5546 8.61127 14.1619 9.07031 13.8702 9.67685C13.5785 10.2834 13.4327 11.0275 13.4327 11.9091C13.4327 12.7907 13.5802 13.5348 13.8752 14.1413C14.1702 14.7479 14.5695 15.2069 15.0733 15.5185C15.5771 15.83 16.1439 15.9858 16.7736 15.9858C17.3569 15.9858 17.8707 15.8615 18.3148 15.6129C18.7623 15.361 19.1103 15.0064 19.3588 14.549C19.6107 14.0883 19.7367 13.5464 19.7367 12.9233L20.1145 13.0028H17.052V11.9091H20.9299V13.0028C20.9299 13.8414 20.7509 14.5705 20.3929 15.1903C20.0383 15.8101 19.5478 16.2907 18.9213 16.6321C18.2982 16.9702 17.5823 17.1392 16.7736 17.1392C15.8721 17.1392 15.08 16.9271 14.3972 16.5028C13.7177 16.0786 13.1874 15.4754 12.8063 14.6932C12.4284 13.911 12.2395 12.983 12.2395 11.9091C12.2395 11.1037 12.3472 10.3795 12.5627 9.73651C12.7814 9.0902 13.0897 8.54001 13.4874 8.08594C13.8851 7.63187 14.3558 7.28385 14.8993 7.0419C15.4429 6.79995 16.0411 6.67898 16.6941 6.67898C17.231 6.67898 17.7315 6.76018 18.1955 6.92258C18.6628 7.08168 19.0788 7.30871 19.4434 7.60369C19.8113 7.89536 20.1178 8.24503 20.3631 8.6527C20.6084 9.05705 20.7774 9.50616 20.8702 10H19.5975Z" fill="#DAB5F0"/>
</svg>
