<svg width="24" height="24" viewBox="0 0 24 24" fill="none" xmlns="http://www.w3.org/2000/svg">
<circle cx="12" cy="12" r="11.5" fill="white" stroke="#DAB5F0"/>
<path d="M9.23295 17V6.81818H12.6733C13.4721 6.81818 14.125 6.96236 14.6321 7.25071C15.1425 7.53575 15.5204 7.92188 15.7656 8.40909C16.0109 8.89631 16.1335 9.43987 16.1335 10.0398C16.1335 10.6397 16.0109 11.1849 15.7656 11.6754C15.5237 12.166 15.1491 12.5571 14.642 12.8487C14.1349 13.1371 13.4853 13.2812 12.6932 13.2812H10.2273V12.1875H12.6534C13.2003 12.1875 13.6394 12.093 13.9709 11.9041C14.3023 11.7152 14.5426 11.46 14.6918 11.1385C14.8442 10.8137 14.9205 10.4474 14.9205 10.0398C14.9205 9.6321 14.8442 9.26752 14.6918 8.94602C14.5426 8.62453 14.3007 8.37263 13.9659 8.19034C13.6312 8.00473 13.187 7.91193 12.6335 7.91193H10.4659V17H9.23295Z" fill="#DAB5F0"/>
</svg>
