<svg width="24" height="24" viewBox="0 0 24 24" fill="none" xmlns="http://www.w3.org/2000/svg">
<circle cx="12" cy="12" r="11.5" fill="white" stroke="#DAB5F0"/>
<path d="M4.23295 17V6.81818H7.6733C8.47206 6.81818 9.125 6.96236 9.6321 7.25071C10.1425 7.53575 10.5204 7.92188 10.7656 8.40909C11.0109 8.89631 11.1335 9.43987 11.1335 10.0398C11.1335 10.6397 11.0109 11.1849 10.7656 11.6754C10.5237 12.166 10.1491 12.5571 9.64205 12.8487C9.13494 13.1371 8.48532 13.2812 7.69318 13.2812H5.22727V12.1875H7.65341C8.20028 12.1875 8.63944 12.093 8.97088 11.9041C9.30232 11.7152 9.54261 11.46 9.69176 11.1385C9.84422 10.8137 9.92045 10.4474 9.92045 10.0398C9.92045 9.6321 9.84422 9.26752 9.69176 8.94602C9.54261 8.62453 9.30066 8.37263 8.96591 8.19034C8.63116 8.00473 8.18703 7.91193 7.63352 7.91193H5.46591V17H4.23295ZM13.1197 17V6.81818H16.56C17.3588 6.81818 18.0117 6.96236 18.5188 7.25071C19.0292 7.53575 19.4071 7.92188 19.6523 8.40909C19.8976 8.89631 20.0202 9.43987 20.0202 10.0398C20.0202 10.6397 19.8976 11.1849 19.6523 11.6754C19.4104 12.166 19.0359 12.5571 18.5288 12.8487C18.0217 13.1371 17.372 13.2812 16.5799 13.2812H14.114V12.1875H16.5401C17.087 12.1875 17.5262 12.093 17.8576 11.9041C18.189 11.7152 18.4293 11.46 18.5785 11.1385C18.7309 10.8137 18.8072 10.4474 18.8072 10.0398C18.8072 9.6321 18.7309 9.26752 18.5785 8.94602C18.4293 8.62453 18.1874 8.37263 17.8526 8.19034C17.5179 8.00473 17.0737 7.91193 16.5202 7.91193H14.3526V17H13.1197Z" fill="#DAB5F0"/>
</svg>
