<svg width="24" height="24" viewBox="0 0 24 24" fill="none" xmlns="http://www.w3.org/2000/svg">
<circle cx="12" cy="12" r="11.5" fill="#DAB5F0" stroke="#DAB5F0"/>
<path d="M3.82955 6.81818L6.45455 11.054H6.53409L9.15909 6.81818H10.6108L7.40909 11.9091L10.6108 17H9.15909L6.53409 12.8438H6.45455L3.82955 17H2.37784L5.65909 11.9091L2.37784 6.81818H3.82955ZM19.0115 10C18.9022 9.66525 18.758 9.36529 18.579 9.10014C18.4033 8.83168 18.1929 8.60298 17.9476 8.41406C17.7057 8.22514 17.4306 8.08097 17.1223 7.98153C16.8141 7.8821 16.476 7.83239 16.1081 7.83239C15.5049 7.83239 14.9564 7.98816 14.4625 8.29972C13.9687 8.61127 13.5759 9.07031 13.2843 9.67685C12.9926 10.2834 12.8468 11.0275 12.8468 11.9091C12.8468 12.7907 12.9943 13.5348 13.2892 14.1413C13.5842 14.7479 13.9836 15.2069 14.4874 15.5185C14.9912 15.83 15.5579 15.9858 16.1877 15.9858C16.771 15.9858 17.2847 15.8615 17.7289 15.6129C18.1763 15.361 18.5243 15.0064 18.7729 14.549C19.0248 14.0883 19.1507 13.5464 19.1507 12.9233L19.5286 13.0028H16.4661V11.9091H20.3439V13.0028C20.3439 13.8414 20.165 14.5705 19.807 15.1903C19.4524 15.8101 18.9618 16.2907 18.3354 16.6321C17.7123 16.9702 16.9964 17.1392 16.1877 17.1392C15.2862 17.1392 14.494 16.9271 13.8113 16.5028C13.1318 16.0786 12.6015 15.4754 12.2203 14.6932C11.8425 13.911 11.6536 12.983 11.6536 11.9091C11.6536 11.1037 11.7613 10.3795 11.9767 9.73651C12.1955 9.0902 12.5037 8.54001 12.9015 8.08594C13.2992 7.63187 13.7698 7.28385 14.3134 7.0419C14.8569 6.79995 15.4552 6.67898 16.1081 6.67898C16.6451 6.67898 17.1455 6.76018 17.6096 6.92258C18.0769 7.08168 18.4928 7.30871 18.8574 7.60369C19.2253 7.89536 19.5319 8.24503 19.7772 8.6527C20.0224 9.05705 20.1915 9.50616 20.2843 10H19.0115Z" fill="white"/>
</svg>
