<svg width="116" height="19" viewBox="0 0 116 19" fill="none" xmlns="http://www.w3.org/2000/svg">
<path d="M19.2089 6.67501L13.2581 5.81017L10.5979 0.417196C10.5253 0.26954 10.4057 0.150009 10.2581 0.0773524C9.88778 -0.10546 9.43778 0.0468837 9.25262 0.417196L6.59246 5.81017L0.641682 6.67501C0.47762 6.69845 0.32762 6.77579 0.212776 6.89298C0.0739361 7.03568 -0.00257088 7.22767 6.5967e-05 7.42675C0.00270281 7.62583 0.0842678 7.81572 0.226838 7.9547L4.53231 12.1524L3.51512 18.0797C3.49127 18.2176 3.50652 18.3594 3.55916 18.489C3.6118 18.6187 3.69972 18.731 3.81294 18.8132C3.92616 18.8955 4.06015 18.9443 4.19973 18.9543C4.3393 18.9642 4.47888 18.9349 4.60262 18.8695L9.92528 16.0711L15.2479 18.8695C15.3932 18.9469 15.562 18.9727 15.7237 18.9445C16.1315 18.8742 16.4057 18.4875 16.3354 18.0797L15.3182 12.1524L19.6237 7.9547C19.7409 7.83985 19.8182 7.68985 19.8417 7.52579C19.905 7.11563 19.619 6.73595 19.2089 6.67501Z" fill="#DAB5F0"/>
<path d="M43.2089 6.67501L37.2581 5.81017L34.5979 0.417196C34.5253 0.26954 34.4057 0.150009 34.2581 0.0773524C33.8878 -0.10546 33.4378 0.0468837 33.2526 0.417196L30.5925 5.81017L24.6417 6.67501C24.4776 6.69845 24.3276 6.77579 24.2128 6.89298C24.0739 7.03568 23.9974 7.22767 24.0001 7.42675C24.0027 7.62583 24.0843 7.81572 24.2268 7.9547L28.5323 12.1524L27.5151 18.0797C27.4913 18.2176 27.5065 18.3594 27.5592 18.489C27.6118 18.6187 27.6997 18.731 27.8129 18.8132C27.9262 18.8955 28.0602 18.9443 28.1997 18.9543C28.3393 18.9642 28.4789 18.9349 28.6026 18.8695L33.9253 16.0711L39.2479 18.8695C39.3932 18.9469 39.562 18.9727 39.7237 18.9445C40.1315 18.8742 40.4057 18.4875 40.3354 18.0797L39.3182 12.1524L43.6237 7.9547C43.7409 7.83985 43.8182 7.68985 43.8417 7.52579C43.905 7.11563 43.619 6.73595 43.2089 6.67501Z" fill="#DAB5F0"/>
<path d="M67.2089 6.67501L61.2581 5.81017L58.5979 0.417196C58.5253 0.26954 58.4057 0.150009 58.2581 0.0773524C57.8878 -0.10546 57.4378 0.0468837 57.2526 0.417196L54.5925 5.81017L48.6417 6.67501C48.4776 6.69845 48.3276 6.77579 48.2128 6.89298C48.0739 7.03568 47.9974 7.22767 48.0001 7.42675C48.0027 7.62583 48.0843 7.81572 48.2268 7.9547L52.5323 12.1524L51.5151 18.0797C51.4913 18.2176 51.5065 18.3594 51.5592 18.489C51.6118 18.6187 51.6997 18.731 51.8129 18.8132C51.9262 18.8955 52.0602 18.9443 52.1997 18.9543C52.3393 18.9642 52.4789 18.9349 52.6026 18.8695L57.9253 16.0711L63.2479 18.8695C63.3932 18.9469 63.562 18.9727 63.7237 18.9445C64.1315 18.8742 64.4057 18.4875 64.3354 18.0797L63.3182 12.1524L67.6237 7.9547C67.7409 7.83985 67.8182 7.68985 67.8417 7.52579C67.905 7.11563 67.619 6.73595 67.2089 6.67501Z" fill="#DAB5F0"/>
<path d="M91.2089 6.67501L85.2581 5.81017L82.5979 0.417196C82.5253 0.26954 82.4057 0.150009 82.2581 0.0773524C81.8878 -0.10546 81.4378 0.0468837 81.2526 0.417196L78.5925 5.81017L72.6417 6.67501C72.4776 6.69845 72.3276 6.77579 72.2128 6.89298C72.0739 7.03568 71.9974 7.22767 72.0001 7.42675C72.0027 7.62583 72.0843 7.81572 72.2268 7.9547L76.5323 12.1524L75.5151 18.0797C75.4913 18.2176 75.5065 18.3594 75.5592 18.489C75.6118 18.6187 75.6997 18.731 75.8129 18.8132C75.9262 18.8955 76.0602 18.9443 76.1997 18.9543C76.3393 18.9642 76.4789 18.9349 76.6026 18.8695L81.9253 16.0711L87.2479 18.8695C87.3932 18.9469 87.562 18.9727 87.7237 18.9445C88.1315 18.8742 88.4057 18.4875 88.3354 18.0797L87.3182 12.1524L91.6237 7.9547C91.7409 7.83985 91.8182 7.68985 91.8417 7.52579C91.905 7.11563 91.619 6.73595 91.2089 6.67501Z" fill="#DAB5F0"/>
<path d="M96.2128 6.89298C96.0739 7.03568 95.9974 7.22767 96.0001 7.42675C96.0027 7.62583 96.0843 7.81572 96.2268 7.9547L100.532 12.1524L99.5151 18.0797L96.5705 7.24229M96.2128 6.89298L96.5699 7.24294C96.5701 7.24272 96.5703 7.24251 96.5705 7.24229M96.2128 6.89298C96.3276 6.77579 96.4776 6.69845 96.6417 6.67501M96.2128 6.89298L96.6417 6.67501M96.5705 7.24229C96.5245 7.28994 96.4991 7.35386 96.5 7.42013C96.5009 7.48669 96.5282 7.55019 96.5758 7.59666L96.5759 7.59669L100.881 11.7943L101.07 11.9778L101.025 12.2369L100.008 18.1643L100.008 18.1649C99.9999 18.2107 100.005 18.2579 100.022 18.301C100.04 18.344 100.069 18.3814 100.107 18.4087C100.144 18.436 100.189 18.4522 100.235 18.4555C100.282 18.4589 100.328 18.4491 100.369 18.4274L100.37 18.427L105.693 15.6285L105.925 15.5062L106.158 15.6285L111.481 18.427L111.483 18.4282C111.528 18.4521 111.584 18.4614 111.638 18.4519L111.639 18.4518C111.776 18.4282 111.866 18.2991 111.843 18.1646L111.843 18.1643L110.825 12.2369L110.781 11.9778L110.969 11.7943L115.274 7.59759C115.274 7.59745 115.274 7.59732 115.274 7.59718C115.314 7.55784 115.339 7.50806 115.347 7.45508L115.347 7.44955L115.348 7.44955C115.368 7.31941 115.277 7.19104 115.136 7.16968C115.136 7.16964 115.136 7.16961 115.135 7.16958L109.186 6.30497L108.926 6.26715L108.81 6.03135L106.15 0.638383L106.149 0.637949C106.125 0.58932 106.086 0.549911 106.037 0.525981L106.037 0.525696C105.915 0.465584 105.763 0.514827 105.7 0.639861C105.7 0.640175 105.7 0.640489 105.7 0.640804L103.041 6.03135L102.925 6.26715L102.664 6.30497L96.7136 7.16981L96.7124 7.16998C96.6595 7.17754 96.6098 7.20246 96.5705 7.24229ZM96.6417 6.67501L102.592 5.81017L96.6417 6.67501Z" fill="white" stroke="#DAB5F0"/>
</svg>
