<svg width="115" height="19" viewBox="0 0 115 19" fill="none" xmlns="http://www.w3.org/2000/svg">
<path d="M19.2089 6.67501L13.2581 5.81017L10.5979 0.417196C10.5253 0.26954 10.4057 0.150009 10.2581 0.0773524C9.88778 -0.10546 9.43778 0.0468837 9.25262 0.417196L6.59246 5.81017L0.641682 6.67501C0.47762 6.69845 0.32762 6.77579 0.212776 6.89298C0.0739361 7.03568 -0.00257088 7.22767 6.5967e-05 7.42675C0.00270281 7.62583 0.0842678 7.81572 0.226838 7.9547L4.53231 12.1524L3.51512 18.0797C3.49127 18.2176 3.50652 18.3594 3.55916 18.489C3.6118 18.6187 3.69972 18.731 3.81294 18.8132C3.92616 18.8955 4.06015 18.9443 4.19973 18.9543C4.3393 18.9642 4.47888 18.9349 4.60262 18.8695L9.92528 16.0711L15.2479 18.8695C15.3932 18.9469 15.562 18.9727 15.7237 18.9445C16.1315 18.8742 16.4057 18.4875 16.3354 18.0797L15.3182 12.1524L19.6237 7.9547C19.7409 7.83985 19.8182 7.68985 19.8417 7.52579C19.905 7.11563 19.619 6.73595 19.2089 6.67501Z" fill="#DAB5F0"/>
<path d="M43.2089 6.67501L37.2581 5.81017L34.5979 0.417196C34.5253 0.26954 34.4057 0.150009 34.2581 0.0773524C33.8878 -0.10546 33.4378 0.0468837 33.2526 0.417196L30.5925 5.81017L24.6417 6.67501C24.4776 6.69845 24.3276 6.77579 24.2128 6.89298C24.0739 7.03568 23.9974 7.22767 24.0001 7.42675C24.0027 7.62583 24.0843 7.81572 24.2268 7.9547L28.5323 12.1524L27.5151 18.0797C27.4913 18.2176 27.5065 18.3594 27.5592 18.489C27.6118 18.6187 27.6997 18.731 27.8129 18.8132C27.9262 18.8955 28.0602 18.9443 28.1997 18.9543C28.3393 18.9642 28.4789 18.9349 28.6026 18.8695L33.9253 16.0711L39.2479 18.8695C39.3932 18.9469 39.562 18.9727 39.7237 18.9445C40.1315 18.8742 40.4057 18.4875 40.3354 18.0797L39.3182 12.1524L43.6237 7.9547C43.7409 7.83985 43.8182 7.68985 43.8417 7.52579C43.905 7.11563 43.619 6.73595 43.2089 6.67501Z" fill="#DAB5F0"/>
<path d="M66.2089 6.67501L60.2581 5.81017L57.5979 0.417196C57.5253 0.26954 57.4057 0.150009 57.2581 0.0773524C56.8878 -0.10546 56.4378 0.0468837 56.2526 0.417196L53.5925 5.81017L47.6417 6.67501C47.4776 6.69845 47.3276 6.77579 47.2128 6.89298C47.0739 7.03568 46.9974 7.22767 47.0001 7.42675C47.0027 7.62583 47.0843 7.81572 47.2268 7.9547L51.5323 12.1524L50.5151 18.0797C50.4913 18.2176 50.5065 18.3594 50.5592 18.489C50.6118 18.6187 50.6997 18.731 50.8129 18.8132C50.9262 18.8955 51.0602 18.9443 51.1997 18.9543C51.3393 18.9642 51.4789 18.9349 51.6026 18.8695L56.9253 16.0711L62.2479 18.8695C62.3932 18.9469 62.562 18.9727 62.7237 18.9445C63.1315 18.8742 63.4057 18.4875 63.3354 18.0797L62.3182 12.1524L66.6237 7.9547C66.7409 7.83985 66.8182 7.68985 66.8417 7.52579C66.905 7.11563 66.619 6.73595 66.2089 6.67501Z" fill="#DAB5F0"/>
<path d="M90.2089 6.67501L84.2581 5.81017L81.5979 0.417196C81.5253 0.26954 81.4057 0.150009 81.2581 0.0773524C80.8878 -0.10546 80.4378 0.0468837 80.2526 0.417196L77.5925 5.81017L71.6417 6.67501C71.4776 6.69845 71.3276 6.77579 71.2128 6.89298C71.0739 7.03568 70.9974 7.22767 71.0001 7.42675C71.0027 7.62583 71.0843 7.81572 71.2268 7.9547L75.5323 12.1524L74.5151 18.0797C74.4913 18.2176 74.5065 18.3594 74.5592 18.489C74.6118 18.6187 74.6997 18.731 74.8129 18.8132C74.9262 18.8955 75.0602 18.9443 75.1997 18.9543C75.3393 18.9642 75.4789 18.9349 75.6026 18.8695L80.9253 16.0711L86.2479 18.8695C86.3932 18.9469 86.562 18.9727 86.7237 18.9445C87.1315 18.8742 87.4057 18.4875 87.3354 18.0797L86.3182 12.1524L90.6237 7.9547C90.7409 7.83985 90.8182 7.68985 90.8417 7.52579C90.905 7.11563 90.619 6.73595 90.2089 6.67501Z" fill="#DAB5F0"/>
<path d="M114.209 6.67501L108.258 5.81017L105.598 0.417196C105.525 0.26954 105.406 0.150009 105.258 0.0773524C104.888 -0.10546 104.438 0.0468837 104.253 0.417196L101.592 5.81017L95.6417 6.67501C95.4776 6.69845 95.3276 6.77579 95.2128 6.89298C95.0739 7.03568 94.9974 7.22767 95.0001 7.42675C95.0027 7.62583 95.0843 7.81572 95.2268 7.9547L99.5323 12.1524L98.5151 18.0797C98.4913 18.2176 98.5065 18.3594 98.5592 18.489C98.6118 18.6187 98.6997 18.731 98.8129 18.8132C98.9262 18.8955 99.0602 18.9443 99.1997 18.9543C99.3393 18.9642 99.4789 18.9349 99.6026 18.8695L104.925 16.0711L110.248 18.8695C110.393 18.9469 110.562 18.9727 110.724 18.9445C111.132 18.8742 111.406 18.4875 111.335 18.0797L110.318 12.1524L114.624 7.9547C114.741 7.83985 114.818 7.68985 114.842 7.52579C114.905 7.11563 114.619 6.73595 114.209 6.67501Z" fill="#DAB5F0"/>
</svg>
