<svg width="352" height="53" viewBox="0 0 352 53" fill="none" xmlns="http://www.w3.org/2000/svg">
<path d="M59.0863 18.4819L40.8613 16.0873L32.7143 1.15514C32.4917 0.746307 32.1257 0.415347 31.6734 0.214175C30.5393 -0.292 29.1611 0.129812 28.5941 1.15514L20.447 16.0873L2.22206 18.4819C1.7196 18.5468 1.26021 18.7609 0.908487 19.0854C0.483274 19.4805 0.248962 20.0121 0.257038 20.5633C0.265114 21.1145 0.514916 21.6403 0.951555 22.0251L14.1376 33.6477L11.0223 50.0594C10.9493 50.4412 10.996 50.8338 11.1572 51.1928C11.3184 51.5518 11.5877 51.8627 11.9344 52.0904C12.2812 52.3181 12.6915 52.4534 13.119 52.4809C13.5465 52.5085 13.9739 52.4272 14.3529 52.2463L30.6542 44.498L46.9554 52.2463C47.4005 52.4605 47.9173 52.5319 48.4126 52.454C49.6615 52.2593 50.5014 51.1885 50.286 50.0594L47.1708 33.6477L60.3568 22.0251C60.7157 21.7071 60.9526 21.2918 61.0243 20.8375C61.2181 19.7019 60.3424 18.6506 59.0863 18.4819Z" fill="#DAB5F0"/>
<path d="M132.589 18.4819L114.364 16.0873L106.217 1.15519C105.995 0.746353 105.629 0.415392 105.176 0.214221C104.042 -0.291954 102.664 0.129858 102.097 1.15519L93.95 16.0873L75.725 18.4819C75.2225 18.5468 74.7631 18.761 74.4114 19.0854C73.9862 19.4806 73.7519 20.0121 73.76 20.5634C73.768 21.1146 74.0178 21.6404 74.4545 22.0252L87.6405 33.6477L84.5252 50.0594C84.4522 50.4412 84.4989 50.8338 84.6601 51.1928C84.8213 51.5518 85.0906 51.8628 85.4373 52.0905C85.7841 52.3181 86.1945 52.4534 86.6219 52.481C87.0494 52.5085 87.4769 52.4273 87.8558 52.2464L104.157 44.498L120.458 52.2464C120.903 52.4605 121.42 52.5319 121.916 52.454C123.164 52.2593 124.004 51.1886 123.789 50.0594L120.674 33.6477L133.86 22.0252C134.219 21.7072 134.455 21.2918 134.527 20.8376C134.721 19.7019 133.845 18.6507 132.589 18.4819Z" fill="#DAB5F0"/>
<path d="M203.029 18.4819L184.804 16.0873L176.657 1.15519C176.435 0.746353 176.069 0.415392 175.617 0.214221C174.482 -0.291954 173.104 0.129858 172.537 1.15519L164.39 16.0873L146.165 18.4819C145.663 18.5468 145.203 18.761 144.852 19.0854C144.426 19.4806 144.192 20.0121 144.2 20.5634C144.208 21.1146 144.458 21.6404 144.895 22.0252L158.081 33.6477L154.965 50.0594C154.892 50.4412 154.939 50.8338 155.1 51.1928C155.262 51.5518 155.531 51.8628 155.878 52.0905C156.224 52.3181 156.635 52.4534 157.062 52.481C157.49 52.5085 157.917 52.4273 158.296 52.2464L174.597 44.498L190.899 52.2464C191.344 52.4605 191.86 52.5319 192.356 52.454C193.605 52.2593 194.444 51.1886 194.229 50.0594L191.114 33.6477L204.3 22.0252C204.659 21.7072 204.896 21.2918 204.967 20.8376C205.161 19.7019 204.286 18.6507 203.029 18.4819Z" fill="#DAB5F0"/>
<path d="M276.532 18.4819L258.307 16.0873L250.16 1.15519C249.938 0.746353 249.571 0.415392 249.119 0.214221C247.985 -0.291954 246.607 0.129858 246.04 1.15519L237.893 16.0873L219.668 18.4819C219.165 18.5468 218.706 18.761 218.354 19.0854C217.929 19.4806 217.695 20.0121 217.703 20.5634C217.711 21.1146 217.961 21.6404 218.397 22.0252L231.583 33.6477L228.468 50.0594C228.395 50.4412 228.442 50.8338 228.603 51.1928C228.764 51.5518 229.033 51.8628 229.38 52.0905C229.727 52.3181 230.137 52.4534 230.565 52.481C230.992 52.5085 231.42 52.4273 231.799 52.2464L248.1 44.498L264.401 52.2464C264.846 52.4605 265.363 52.5319 265.858 52.454C267.107 52.2593 267.947 51.1886 267.732 50.0594L264.617 33.6477L277.803 22.0252C278.161 21.7072 278.398 21.2918 278.47 20.8376C278.664 19.7019 277.788 18.6507 276.532 18.4819Z" fill="#DAB5F0"/>
<path d="M350.035 18.4819L331.81 16.0873L323.663 1.15519C323.44 0.746353 323.074 0.415392 322.622 0.214221C321.488 -0.291954 320.11 0.129858 319.543 1.15519L311.396 16.0873L293.171 18.4819C292.668 18.5468 292.209 18.761 291.857 19.0854C291.432 19.4806 291.198 20.0121 291.206 20.5634C291.214 21.1146 291.464 21.6404 291.9 22.0252L305.086 33.6477L301.971 50.0594C301.898 50.4412 301.945 50.8338 302.106 51.1928C302.267 51.5518 302.536 51.8628 302.883 52.0905C303.23 52.3181 303.64 52.4534 304.068 52.481C304.495 52.5085 304.923 52.4273 305.302 52.2464L321.603 44.498L337.904 52.2464C338.349 52.4605 338.866 52.5319 339.361 52.454C340.61 52.2593 341.45 51.1886 341.235 50.0594L338.119 33.6477L351.306 22.0252C351.664 21.7072 351.901 21.2918 351.973 20.8376C352.167 19.7019 351.291 18.6507 350.035 18.4819Z" fill="#DAB5F0"/>
</svg>
