<svg width="430" height="348" viewBox="0 0 430 348" fill="none" xmlns="http://www.w3.org/2000/svg">
<rect width="430" height="348" fill="#353535"/>
<path d="M57.8501 287.489C55.3787 281 49.0813 276.387 41.7047 276.387C34.3281 276.387 28.0308 280.995 25.5593 287.483C20.9348 288.692 17.519 292.881 17.519 297.871C17.519 303.806 22.3486 308.613 28.306 308.613H55.0819C61.0393 308.613 65.8689 303.806 65.8689 297.871C65.8689 292.892 62.4639 288.703 57.8501 287.489Z" fill="#494949"/>
<path d="M57.8501 152.489C55.3787 146 49.0813 141.387 41.7047 141.387C34.3281 141.387 28.0308 145.995 25.5593 152.483C20.9348 153.692 17.519 157.881 17.519 162.871C17.519 168.806 22.3486 173.613 28.306 173.613H55.0819C61.0393 173.613 65.8689 168.806 65.8689 162.871C65.8689 157.892 62.4639 153.703 57.8501 152.489Z" fill="#494949"/>
<path d="M127.173 286.489C124.701 280 118.404 275.387 111.027 275.387C103.651 275.387 97.3532 279.995 94.8817 286.483C90.2572 287.692 86.8414 291.881 86.8414 296.871C86.8414 302.806 91.671 307.613 97.6284 307.613H124.404C130.362 307.613 135.191 302.806 135.191 296.871C135.191 291.892 131.786 287.703 127.173 286.489Z" fill="#494949"/>
<path d="M127.173 151.489C124.701 145 118.404 140.387 111.027 140.387C103.651 140.387 97.3532 144.995 94.8817 151.483C90.2572 152.692 86.8414 156.881 86.8414 161.871C86.8414 167.806 91.671 172.613 97.6284 172.613H124.404C130.362 172.613 135.191 167.806 135.191 161.871C135.191 156.892 131.786 152.703 127.173 151.489Z" fill="#494949"/>
<path d="M196.495 286.489C194.024 280 187.726 275.387 180.35 275.387C172.973 275.387 166.676 279.995 164.204 286.483C159.58 287.692 156.164 291.881 156.164 296.871C156.164 302.806 160.993 307.613 166.951 307.613H193.727C199.684 307.613 204.514 302.806 204.514 296.871C204.514 291.892 201.109 287.703 196.495 286.489Z" fill="#494949"/>
<path d="M196.495 151.489C194.024 145 187.726 140.387 180.35 140.387C172.973 140.387 166.676 144.995 164.204 151.483C159.58 152.692 156.164 156.881 156.164 161.871C156.164 167.806 160.993 172.613 166.951 172.613H193.727C199.684 172.613 204.514 167.806 204.514 161.871C204.514 156.892 201.109 152.703 196.495 151.489Z" fill="#494949"/>
<path d="M265.817 286.489C263.346 280 257.049 275.387 249.672 275.387C242.295 275.387 235.998 279.995 233.527 286.483C228.902 287.692 225.486 291.881 225.486 296.871C225.486 302.806 230.316 307.613 236.273 307.613H263.049C269.007 307.613 273.836 302.806 273.836 296.871C273.836 291.892 270.431 287.703 265.817 286.489Z" fill="#494949"/>
<path d="M265.817 151.489C263.346 145 257.049 140.387 249.672 140.387C242.295 140.387 235.998 144.995 233.527 151.483C228.902 152.692 225.486 156.881 225.486 161.871C225.486 167.806 230.316 172.613 236.273 172.613H263.049C269.007 172.613 273.836 167.806 273.836 161.871C273.836 156.892 270.431 152.703 265.817 151.489Z" fill="#494949"/>
<path d="M335.14 287.489C332.668 281 326.371 276.387 318.994 276.387C311.618 276.387 305.32 280.995 302.849 287.483C298.224 288.692 294.809 292.881 294.809 297.871C294.809 303.806 299.638 308.613 305.596 308.613H332.372C338.329 308.613 343.159 303.806 343.159 297.871C343.159 292.892 339.754 288.703 335.14 287.489Z" fill="#494949"/>
<path d="M335.14 152.489C332.668 146 326.371 141.387 318.994 141.387C311.618 141.387 305.32 145.995 302.849 152.483C298.224 153.692 294.809 157.881 294.809 162.871C294.809 168.806 299.638 173.613 305.596 173.613H332.372C338.329 173.613 343.159 168.806 343.159 162.871C343.159 157.892 339.754 153.703 335.14 152.489Z" fill="#494949"/>
<path d="M404.462 287.489C401.991 281 395.693 276.387 388.317 276.387C380.94 276.387 374.643 280.995 372.171 287.483C367.547 288.692 364.131 292.881 364.131 297.871C364.131 303.806 368.961 308.613 374.918 308.613H401.694C407.651 308.613 412.481 303.806 412.481 297.871C412.481 292.892 409.076 288.703 404.462 287.489Z" fill="#494949"/>
<path d="M404.462 152.489C401.991 146 395.693 141.387 388.317 141.387C380.94 141.387 374.643 145.995 372.171 152.483C367.547 153.692 364.131 157.881 364.131 162.871C364.131 168.806 368.961 173.613 374.918 173.613H401.694C407.651 173.613 412.481 168.806 412.481 162.871C412.481 157.892 409.076 153.703 404.462 152.489Z" fill="#494949"/>
<path d="M57.8501 220.489C55.3787 214 49.0813 209.387 41.7047 209.387C34.3281 209.387 28.0308 213.995 25.5593 220.483C20.9348 221.692 17.519 225.881 17.519 230.871C17.519 236.806 22.3486 241.613 28.306 241.613H55.0819C61.0393 241.613 65.8689 236.806 65.8689 230.871C65.8689 225.892 62.4639 221.703 57.8501 220.489Z" fill="#494949"/>
<path d="M57.8501 85.4888C55.3787 79.0005 49.0813 74.3867 41.7047 74.3867C34.3281 74.3867 28.0308 78.9951 25.5593 85.4834C20.9348 86.6919 17.519 90.8813 17.519 95.8711C17.519 101.806 22.3486 106.613 28.306 106.613H55.0819C61.0393 106.613 65.8689 101.806 65.8689 95.8711C65.8689 90.8921 62.4639 86.7026 57.8501 85.4888Z" fill="#494949"/>
<path d="M57.8501 30.4888C55.3787 24.0005 49.0813 19.3867 41.7047 19.3867C34.3281 19.3867 28.0308 23.9951 25.5593 30.4834C20.9348 31.6919 17.519 35.8813 17.519 40.8711C17.519 46.8062 22.3486 51.6133 28.306 51.6133H55.0819C61.0393 51.6133 65.8689 46.8062 65.8689 40.8711C65.8689 35.8921 62.4639 31.7026 57.8501 30.4888Z" fill="#494949"/>
<path d="M127.173 219.489C124.701 213 118.404 208.387 111.027 208.387C103.651 208.387 97.3532 212.995 94.8817 219.483C90.2572 220.692 86.8414 224.881 86.8414 229.871C86.8414 235.806 91.671 240.613 97.6284 240.613H124.404C130.362 240.613 135.191 235.806 135.191 229.871C135.191 224.892 131.786 220.703 127.173 219.489Z" fill="#494949"/>
<path d="M127.173 84.4888C124.701 78.0005 118.404 73.3867 111.027 73.3867C103.651 73.3867 97.3532 77.9951 94.8817 84.4834C90.2572 85.6919 86.8414 89.8813 86.8414 94.8711C86.8414 100.806 91.671 105.613 97.6284 105.613H124.404C130.362 105.613 135.191 100.806 135.191 94.8711C135.191 89.8921 131.786 85.7026 127.173 84.4888Z" fill="#494949"/>
<path d="M127.173 29.4888C124.701 23.0005 118.404 18.3867 111.027 18.3867C103.651 18.3867 97.3532 22.9951 94.8817 29.4834C90.2572 30.6919 86.8414 34.8813 86.8414 39.8711C86.8414 45.8062 91.671 50.6133 97.6284 50.6133H124.404C130.362 50.6133 135.191 45.8062 135.191 39.8711C135.191 34.8921 131.786 30.7026 127.173 29.4888Z" fill="#494949"/>
<path d="M196.495 219.489C194.024 213 187.726 208.387 180.35 208.387C172.973 208.387 166.676 212.995 164.204 219.483C159.58 220.692 156.164 224.881 156.164 229.871C156.164 235.806 160.993 240.613 166.951 240.613H193.727C199.684 240.613 204.514 235.806 204.514 229.871C204.514 224.892 201.109 220.703 196.495 219.489Z" fill="#494949"/>
<path d="M196.495 84.4888C194.024 78.0005 187.726 73.3867 180.35 73.3867C172.973 73.3867 166.676 77.9951 164.204 84.4834C159.58 85.6919 156.164 89.8813 156.164 94.8711C156.164 100.806 160.993 105.613 166.951 105.613H193.727C199.684 105.613 204.514 100.806 204.514 94.8711C204.514 89.8921 201.109 85.7026 196.495 84.4888Z" fill="#494949"/>
<path d="M196.495 29.4888C194.024 23.0005 187.726 18.3867 180.35 18.3867C172.973 18.3867 166.676 22.9951 164.204 29.4834C159.58 30.6919 156.164 34.8813 156.164 39.8711C156.164 45.8062 160.993 50.6133 166.951 50.6133H193.727C199.684 50.6133 204.514 45.8062 204.514 39.8711C204.514 34.8921 201.109 30.7026 196.495 29.4888Z" fill="#494949"/>
<path d="M265.817 219.489C263.346 213 257.049 208.387 249.672 208.387C242.295 208.387 235.998 212.995 233.527 219.483C228.902 220.692 225.486 224.881 225.486 229.871C225.486 235.806 230.316 240.613 236.273 240.613H263.049C269.007 240.613 273.836 235.806 273.836 229.871C273.836 224.892 270.431 220.703 265.817 219.489Z" fill="#494949"/>
<path d="M265.817 84.4888C263.346 78.0005 257.049 73.3867 249.672 73.3867C242.295 73.3867 235.998 77.9951 233.527 84.4834C228.902 85.6919 225.486 89.8813 225.486 94.8711C225.486 100.806 230.316 105.613 236.273 105.613H263.049C269.007 105.613 273.836 100.806 273.836 94.8711C273.836 89.8921 270.431 85.7026 265.817 84.4888Z" fill="#494949"/>
<path d="M265.817 29.4888C263.346 23.0005 257.049 18.3867 249.672 18.3867C242.295 18.3867 235.998 22.9951 233.527 29.4834C228.902 30.6919 225.486 34.8813 225.486 39.8711C225.486 45.8062 230.316 50.6133 236.273 50.6133H263.049C269.007 50.6133 273.836 45.8062 273.836 39.8711C273.836 34.8921 270.431 30.7026 265.817 29.4888Z" fill="#494949"/>
<path d="M335.14 220.489C332.668 214 326.371 209.387 318.994 209.387C311.618 209.387 305.32 213.995 302.849 220.483C298.224 221.692 294.809 225.881 294.809 230.871C294.809 236.806 299.638 241.613 305.596 241.613H332.372C338.329 241.613 343.159 236.806 343.159 230.871C343.159 225.892 339.754 221.703 335.14 220.489Z" fill="#494949"/>
<path d="M335.14 85.4888C332.668 79.0005 326.371 74.3867 318.994 74.3867C311.618 74.3867 305.32 78.9951 302.849 85.4834C298.224 86.6919 294.809 90.8813 294.809 95.8711C294.809 101.806 299.638 106.613 305.596 106.613H332.372C338.329 106.613 343.159 101.806 343.159 95.8711C343.159 90.8921 339.754 86.7026 335.14 85.4888Z" fill="#494949"/>
<path d="M335.14 30.4888C332.668 24.0005 326.371 19.3867 318.994 19.3867C311.618 19.3867 305.32 23.9951 302.849 30.4834C298.224 31.6919 294.809 35.8813 294.809 40.8711C294.809 46.8062 299.638 51.6133 305.596 51.6133H332.372C338.329 51.6133 343.159 46.8062 343.159 40.8711C343.159 35.8921 339.754 31.7026 335.14 30.4888Z" fill="#494949"/>
<path d="M404.462 220.489C401.991 214 395.693 209.387 388.317 209.387C380.94 209.387 374.643 213.995 372.171 220.483C367.547 221.692 364.131 225.881 364.131 230.871C364.131 236.806 368.961 241.613 374.918 241.613H401.694C407.651 241.613 412.481 236.806 412.481 230.871C412.481 225.892 409.076 221.703 404.462 220.489Z" fill="#494949"/>
<path d="M404.462 85.4888C401.991 79.0005 395.693 74.3867 388.317 74.3867C380.94 74.3867 374.643 78.9951 372.171 85.4834C367.547 86.6919 364.131 90.8813 364.131 95.8711C364.131 101.806 368.961 106.613 374.918 106.613H401.694C407.651 106.613 412.481 101.806 412.481 95.8711C412.481 90.8921 409.076 86.7026 404.462 85.4888Z" fill="#494949"/>
<path d="M404.462 30.4888C401.991 24.0005 395.693 19.3867 388.317 19.3867C380.94 19.3867 374.643 23.9951 372.171 30.4834C367.547 31.6919 364.131 35.8813 364.131 40.8711C364.131 46.8062 368.961 51.6133 374.918 51.6133H401.694C407.651 51.6133 412.481 46.8062 412.481 40.8711C412.481 35.8921 409.076 31.7026 404.462 30.4888Z" fill="#494949"/>
</svg>
