<svg width="18" height="18" viewBox="0 0 18 18" fill="none" xmlns="http://www.w3.org/2000/svg">
<g id="MagnifyingGlass">
<g clip-path="url(#clip0_16_8)">
<path id="Vector" d="M16.5015 14.9985L16.5015 14.9985L13.2927 11.7903C14.2069 10.526 14.6538 8.97727 14.5469 7.41115C14.4295 5.69213 13.6539 4.08453 12.3815 2.92277C11.109 1.76101 9.43766 1.13455 7.71507 1.1737C5.99249 1.21285 4.35131 1.91459 3.13295 3.13296C1.91458 4.35132 1.21284 5.9925 1.17369 7.71508C1.13454 9.43766 1.761 11.109 2.92276 12.3815C4.08452 13.6539 5.69212 14.4295 7.41115 14.5469C8.97727 14.6538 10.526 14.2069 11.7903 13.2927L14.9984 16.5015L14.9985 16.5015C15.0972 16.6002 15.2143 16.6785 15.3433 16.7319C15.4722 16.7853 15.6104 16.8128 15.75 16.8128C15.8896 16.8128 16.0278 16.7853 16.1567 16.7319L15.9654 16.27L16.1567 16.7319C16.2857 16.6785 16.4028 16.6002 16.5015 16.5015C16.6002 16.4028 16.6785 16.2857 16.7319 16.1567L16.27 15.9654L16.7319 16.1567C16.7853 16.0278 16.8128 15.8896 16.8128 15.75C16.8128 15.6104 16.7853 15.4722 16.7319 15.3433C16.6785 15.2143 16.6002 15.0972 16.5015 14.9985ZM3.3125 7.87477C3.31255 6.97248 3.58013 6.09045 4.08142 5.34022C4.58275 4.58992 5.29532 4.00513 6.12901 3.65981C6.9627 3.31448 7.88006 3.22413 8.7651 3.40018C9.65014 3.57622 10.4631 4.01076 11.1012 4.64883C11.7393 5.28691 12.1738 6.09987 12.3498 6.98491C12.5259 7.86995 12.4355 8.78731 12.0902 9.621C11.7449 10.4547 11.1601 11.1673 10.4098 11.6686C9.65965 12.1698 8.77774 12.4374 7.87556 12.4375C6.66577 12.4362 5.50592 11.955 4.65047 11.0995C3.7951 10.2442 3.31393 9.08444 3.3125 7.87477Z" fill="#DAB5F0" stroke="#DAB5F0"/>
</g>
</g>
<defs>
<clipPath id="clip0_16_8">
<rect width="18" height="18" fill="white"/>
</clipPath>
</defs>
</svg>
