<svg width="24" height="24" viewBox="0 0 24 24" fill="none" xmlns="http://www.w3.org/2000/svg">
<circle cx="12" cy="12" r="11.5" fill="white" stroke="#DAB5F0"/>
<path d="M4.82955 6.81818L7.45455 11.054H7.53409L10.1591 6.81818H11.6108L8.40909 11.9091L11.6108 17H10.1591L7.53409 12.8438H7.45455L4.82955 17H3.37784L6.65909 11.9091L3.37784 6.81818H4.82955ZM20.0115 10C19.9022 9.66525 19.758 9.36529 19.579 9.10014C19.4033 8.83168 19.1929 8.60298 18.9476 8.41406C18.7057 8.22514 18.4306 8.08097 18.1223 7.98153C17.8141 7.8821 17.476 7.83239 17.1081 7.83239C16.5049 7.83239 15.9564 7.98816 15.4625 8.29972C14.9687 8.61127 14.5759 9.07031 14.2843 9.67685C13.9926 10.2834 13.8468 11.0275 13.8468 11.9091C13.8468 12.7907 13.9943 13.5348 14.2892 14.1413C14.5842 14.7479 14.9836 15.2069 15.4874 15.5185C15.9912 15.83 16.5579 15.9858 17.1877 15.9858C17.771 15.9858 18.2847 15.8615 18.7289 15.6129C19.1763 15.361 19.5243 15.0064 19.7729 14.549C20.0248 14.0883 20.1507 13.5464 20.1507 12.9233L20.5286 13.0028H17.4661V11.9091H21.3439V13.0028C21.3439 13.8414 21.165 14.5705 20.807 15.1903C20.4524 15.8101 19.9618 16.2907 19.3354 16.6321C18.7123 16.9702 17.9964 17.1392 17.1877 17.1392C16.2862 17.1392 15.494 16.9271 14.8113 16.5028C14.1318 16.0786 13.6015 15.4754 13.2203 14.6932C12.8425 13.911 12.6536 12.983 12.6536 11.9091C12.6536 11.1037 12.7613 10.3795 12.9767 9.73651C13.1955 9.0902 13.5037 8.54001 13.9015 8.08594C14.2992 7.63187 14.7698 7.28385 15.3134 7.0419C15.8569 6.79995 16.4552 6.67898 17.1081 6.67898C17.6451 6.67898 18.1455 6.76018 18.6096 6.92258C19.0769 7.08168 19.4928 7.30871 19.8574 7.60369C20.2253 7.89536 20.5319 8.24503 20.7772 8.6527C21.0224 9.05705 21.1915 9.50616 21.2843 10H20.0115Z" fill="#DAB5F0"/>
</svg>
